G04 EAGLE Gerber RS-274X export*
G75*
%MOMM*%
%FSLAX34Y34*%
%LPD*%
%INTop Copper*%
%IPNEG*%
%AMOC8*
5,1,8,0,0,1.08239X$1,22.5*%
G01*
%ADD10C,0.000000*%
%ADD11R,2.200000X1.700000*%
%ADD12R,1.500000X1.300000*%
%ADD13R,1.600000X1.300000*%
%ADD14R,2.500000X1.000000*%
%ADD15R,1.000000X1.800000*%
%ADD16R,1.500000X2.000000*%
%ADD17R,3.800000X2.000000*%
%ADD18P,4.123906X8X112.500000*%
%ADD19C,1.524000*%
%ADD20R,2.200000X1.200000*%
%ADD21R,6.400000X5.800000*%
%ADD22R,1.300000X1.600000*%
%ADD23C,1.350000*%
%ADD24C,0.304800*%
%ADD25C,0.609600*%
%ADD26C,0.812800*%
%ADD27C,1.270000*%
%ADD28C,0.254000*%

G36*
X635737Y10177D02*
X635737Y10177D01*
X635968Y10187D01*
X636022Y10197D01*
X636076Y10201D01*
X636302Y10249D01*
X636528Y10291D01*
X636580Y10308D01*
X636634Y10320D01*
X636850Y10399D01*
X637068Y10472D01*
X637117Y10497D01*
X637169Y10516D01*
X637372Y10624D01*
X637577Y10727D01*
X637623Y10758D01*
X637671Y10784D01*
X637857Y10920D01*
X638046Y11051D01*
X638087Y11088D01*
X638131Y11121D01*
X638296Y11281D01*
X638465Y11437D01*
X638500Y11480D01*
X638539Y11518D01*
X638680Y11700D01*
X638826Y11878D01*
X638854Y11926D01*
X638888Y11969D01*
X639002Y12169D01*
X639121Y12366D01*
X639143Y12416D01*
X639170Y12464D01*
X639255Y12678D01*
X639346Y12889D01*
X639360Y12942D01*
X639380Y12993D01*
X639435Y13218D01*
X639495Y13439D01*
X639499Y13483D01*
X639515Y13547D01*
X639570Y14114D01*
X639567Y14180D01*
X639571Y14224D01*
X639571Y36658D01*
X644998Y42085D01*
X645074Y42172D01*
X645156Y42252D01*
X645261Y42387D01*
X645372Y42515D01*
X645435Y42612D01*
X645505Y42703D01*
X645589Y42850D01*
X645682Y42993D01*
X645730Y43098D01*
X645787Y43198D01*
X645850Y43356D01*
X645922Y43510D01*
X645955Y43620D01*
X645998Y43727D01*
X646038Y43893D01*
X646087Y44055D01*
X646105Y44169D01*
X646132Y44281D01*
X646148Y44451D01*
X646174Y44618D01*
X646176Y44733D01*
X646187Y44848D01*
X646180Y45018D01*
X646182Y45188D01*
X646167Y45302D01*
X646162Y45418D01*
X646131Y45585D01*
X646110Y45753D01*
X646079Y45865D01*
X646058Y45978D01*
X646004Y46139D01*
X645959Y46303D01*
X645914Y46409D01*
X645877Y46518D01*
X645801Y46670D01*
X645734Y46826D01*
X645674Y46924D01*
X645622Y47027D01*
X645525Y47167D01*
X645437Y47312D01*
X645364Y47401D01*
X645298Y47496D01*
X645183Y47621D01*
X645075Y47753D01*
X644990Y47830D01*
X644912Y47915D01*
X644780Y48023D01*
X644655Y48138D01*
X644560Y48203D01*
X644471Y48276D01*
X644325Y48364D01*
X644185Y48460D01*
X644082Y48512D01*
X643984Y48571D01*
X643828Y48638D01*
X643675Y48714D01*
X643566Y48750D01*
X643460Y48796D01*
X643296Y48840D01*
X643134Y48894D01*
X643021Y48915D01*
X642910Y48945D01*
X642795Y48956D01*
X642574Y48996D01*
X642242Y49010D01*
X642125Y49021D01*
X623742Y49021D01*
X607821Y64942D01*
X607821Y87458D01*
X611913Y91549D01*
X612064Y91723D01*
X612219Y91893D01*
X612250Y91938D01*
X612286Y91979D01*
X612412Y92173D01*
X612542Y92362D01*
X612566Y92411D01*
X612596Y92458D01*
X612693Y92667D01*
X612796Y92873D01*
X612813Y92925D01*
X612836Y92974D01*
X612903Y93195D01*
X612976Y93413D01*
X612985Y93467D01*
X613001Y93520D01*
X613037Y93747D01*
X613078Y93974D01*
X613080Y94029D01*
X613089Y94083D01*
X613092Y94312D01*
X613101Y94543D01*
X613096Y94598D01*
X613096Y94653D01*
X613067Y94881D01*
X613044Y95110D01*
X613031Y95163D01*
X613024Y95218D01*
X612963Y95440D01*
X612909Y95663D01*
X612888Y95714D01*
X612874Y95767D01*
X612782Y95979D01*
X612697Y96192D01*
X612670Y96240D01*
X612648Y96290D01*
X612528Y96487D01*
X612414Y96687D01*
X612385Y96721D01*
X612351Y96777D01*
X611989Y97217D01*
X611941Y97261D01*
X611913Y97296D01*
X608416Y100792D01*
X606151Y106260D01*
X606151Y112180D01*
X608416Y117648D01*
X612602Y121834D01*
X618070Y124099D01*
X623990Y124099D01*
X629458Y121834D01*
X633644Y117648D01*
X634137Y116458D01*
X634214Y116303D01*
X634282Y116145D01*
X634341Y116049D01*
X634391Y115948D01*
X634489Y115806D01*
X634579Y115658D01*
X634650Y115571D01*
X634714Y115479D01*
X634831Y115352D01*
X634941Y115218D01*
X635024Y115142D01*
X635100Y115059D01*
X635233Y114950D01*
X635361Y114833D01*
X635454Y114769D01*
X635540Y114698D01*
X635688Y114608D01*
X635830Y114511D01*
X635931Y114460D01*
X636027Y114402D01*
X636186Y114334D01*
X636341Y114257D01*
X636447Y114221D01*
X636551Y114177D01*
X636717Y114131D01*
X636881Y114077D01*
X636992Y114057D01*
X637100Y114027D01*
X637272Y114006D01*
X637442Y113974D01*
X637554Y113970D01*
X637666Y113956D01*
X637838Y113958D01*
X638011Y113951D01*
X638123Y113963D01*
X638235Y113964D01*
X638406Y113991D01*
X638578Y114008D01*
X638687Y114035D01*
X638798Y114052D01*
X638964Y114103D01*
X639131Y114144D01*
X639236Y114185D01*
X639344Y114218D01*
X639500Y114291D01*
X639660Y114355D01*
X639758Y114411D01*
X639860Y114459D01*
X640005Y114553D01*
X640155Y114639D01*
X640221Y114693D01*
X640338Y114769D01*
X640754Y115131D01*
X640764Y115140D01*
X660254Y134630D01*
X664898Y139274D01*
X670220Y141479D01*
X728920Y141479D01*
X728980Y141483D01*
X729040Y141481D01*
X729264Y141503D01*
X729488Y141519D01*
X729547Y141531D01*
X729607Y141537D01*
X729825Y141591D01*
X730045Y141638D01*
X730102Y141658D01*
X730161Y141673D01*
X730369Y141756D01*
X730580Y141834D01*
X730634Y141862D01*
X730690Y141884D01*
X730885Y141996D01*
X731083Y142102D01*
X731131Y142138D01*
X731184Y142168D01*
X731275Y142243D01*
X731543Y142439D01*
X731704Y142596D01*
X731793Y142669D01*
X742046Y152922D01*
X742048Y152924D01*
X742050Y152926D01*
X742229Y153133D01*
X742419Y153352D01*
X742421Y153354D01*
X742423Y153356D01*
X742570Y153584D01*
X742729Y153830D01*
X742730Y153833D01*
X742732Y153835D01*
X742847Y154084D01*
X742969Y154347D01*
X742970Y154350D01*
X742971Y154352D01*
X743051Y154616D01*
X743134Y154892D01*
X743135Y154895D01*
X743135Y154898D01*
X743178Y155177D01*
X743222Y155455D01*
X743222Y155458D01*
X743222Y155461D01*
X743226Y155748D01*
X743229Y156025D01*
X743229Y156028D01*
X743229Y156031D01*
X743193Y156309D01*
X743157Y156590D01*
X743156Y156593D01*
X743156Y156596D01*
X743152Y156608D01*
X743007Y157140D01*
X742951Y157268D01*
X742926Y157350D01*
X742871Y157483D01*
X742871Y172717D01*
X744109Y175705D01*
X746395Y177991D01*
X749383Y179229D01*
X757467Y179229D01*
X757585Y179237D01*
X757702Y179236D01*
X757868Y179257D01*
X758035Y179269D01*
X758151Y179293D01*
X758267Y179308D01*
X758377Y179342D01*
X758592Y179388D01*
X758911Y179504D01*
X759022Y179538D01*
X759120Y179579D01*
X764880Y179579D01*
X764978Y179538D01*
X765090Y179501D01*
X765199Y179454D01*
X765360Y179410D01*
X765519Y179357D01*
X765635Y179336D01*
X765748Y179305D01*
X765862Y179294D01*
X766079Y179254D01*
X766417Y179240D01*
X766533Y179229D01*
X774617Y179229D01*
X777605Y177991D01*
X779891Y175705D01*
X781129Y172717D01*
X781129Y157483D01*
X779891Y154495D01*
X777669Y152273D01*
X777629Y152227D01*
X777585Y152187D01*
X777443Y152013D01*
X777295Y151843D01*
X777262Y151792D01*
X777224Y151746D01*
X777107Y151553D01*
X776985Y151365D01*
X776960Y151310D01*
X776929Y151258D01*
X776840Y151052D01*
X776745Y150848D01*
X776728Y150790D01*
X776704Y150735D01*
X776646Y150518D01*
X776580Y150303D01*
X776571Y150243D01*
X776555Y150185D01*
X776544Y150068D01*
X776493Y149740D01*
X776490Y149515D01*
X776479Y149400D01*
X776479Y148201D01*
X776487Y148084D01*
X776486Y147966D01*
X776507Y147800D01*
X776519Y147633D01*
X776543Y147518D01*
X776558Y147401D01*
X776592Y147292D01*
X776638Y147076D01*
X776754Y146758D01*
X776788Y146646D01*
X777629Y144617D01*
X777629Y128383D01*
X776391Y125395D01*
X774025Y123029D01*
X773792Y122868D01*
X773570Y122715D01*
X773568Y122713D01*
X773566Y122712D01*
X773352Y122515D01*
X773151Y122330D01*
X773149Y122327D01*
X773147Y122326D01*
X772962Y122100D01*
X772789Y121889D01*
X772788Y121887D01*
X772786Y121885D01*
X772631Y121629D01*
X772591Y121563D01*
X762000Y121563D01*
X761771Y121547D01*
X761541Y121537D01*
X761487Y121527D01*
X761432Y121523D01*
X761207Y121475D01*
X760981Y121433D01*
X760928Y121416D01*
X760875Y121404D01*
X760659Y121325D01*
X760440Y121252D01*
X760391Y121227D01*
X760340Y121209D01*
X760137Y121100D01*
X759931Y120997D01*
X759886Y120966D01*
X759837Y120940D01*
X759652Y120804D01*
X759462Y120673D01*
X759422Y120636D01*
X759377Y120603D01*
X759212Y120443D01*
X759043Y120287D01*
X759043Y120286D01*
X759008Y120244D01*
X758969Y120205D01*
X758828Y120024D01*
X758682Y119845D01*
X758653Y119798D01*
X758620Y119755D01*
X758506Y119555D01*
X758386Y119358D01*
X758365Y119308D01*
X758338Y119260D01*
X758252Y119045D01*
X758162Y118834D01*
X758148Y118782D01*
X758127Y118730D01*
X758073Y118506D01*
X758013Y118284D01*
X758009Y118240D01*
X757993Y118176D01*
X757938Y117609D01*
X757941Y117544D01*
X757937Y117500D01*
X757937Y108459D01*
X754250Y108459D01*
X753759Y108557D01*
X753297Y108748D01*
X752880Y109027D01*
X752527Y109380D01*
X752248Y109797D01*
X752057Y110259D01*
X751959Y110750D01*
X751959Y112074D01*
X751951Y112189D01*
X751953Y112304D01*
X751931Y112472D01*
X751919Y112642D01*
X751895Y112755D01*
X751881Y112869D01*
X751836Y113033D01*
X751800Y113199D01*
X751761Y113307D01*
X751730Y113419D01*
X751663Y113575D01*
X751604Y113734D01*
X751550Y113836D01*
X751504Y113942D01*
X751416Y114087D01*
X751336Y114237D01*
X751268Y114330D01*
X751208Y114428D01*
X751100Y114559D01*
X750999Y114697D01*
X750919Y114779D01*
X750846Y114868D01*
X750720Y114983D01*
X750602Y115105D01*
X750511Y115176D01*
X750426Y115253D01*
X750286Y115350D01*
X750151Y115454D01*
X750051Y115511D01*
X749956Y115576D01*
X749804Y115652D01*
X749656Y115736D01*
X749549Y115778D01*
X749446Y115830D01*
X749285Y115883D01*
X749127Y115946D01*
X749014Y115973D01*
X748905Y116010D01*
X748738Y116040D01*
X748573Y116080D01*
X748458Y116091D01*
X748345Y116112D01*
X748175Y116119D01*
X748006Y116135D01*
X747891Y116131D01*
X747775Y116135D01*
X747606Y116118D01*
X747436Y116111D01*
X747323Y116090D01*
X747208Y116078D01*
X747043Y116038D01*
X746876Y116007D01*
X746767Y115970D01*
X746655Y115943D01*
X746497Y115880D01*
X746336Y115826D01*
X746233Y115774D01*
X746126Y115731D01*
X745979Y115647D01*
X745827Y115570D01*
X745732Y115505D01*
X745632Y115448D01*
X745543Y115374D01*
X745358Y115247D01*
X745114Y115022D01*
X745023Y114947D01*
X744802Y114726D01*
X739480Y112521D01*
X680780Y112521D01*
X680720Y112517D01*
X680660Y112519D01*
X680436Y112497D01*
X680212Y112481D01*
X680153Y112469D01*
X680093Y112463D01*
X679874Y112409D01*
X679655Y112362D01*
X679598Y112342D01*
X679539Y112327D01*
X679331Y112244D01*
X679120Y112166D01*
X679066Y112138D01*
X679010Y112116D01*
X678815Y112004D01*
X678617Y111898D01*
X678569Y111862D01*
X678516Y111832D01*
X678425Y111757D01*
X678157Y111561D01*
X677996Y111404D01*
X677907Y111331D01*
X660979Y94403D01*
X660828Y94229D01*
X660673Y94060D01*
X660642Y94015D01*
X660606Y93973D01*
X660481Y93780D01*
X660350Y93590D01*
X660326Y93541D01*
X660296Y93495D01*
X660199Y93286D01*
X660097Y93080D01*
X660079Y93028D01*
X660056Y92978D01*
X659989Y92758D01*
X659917Y92540D01*
X659907Y92485D01*
X659891Y92433D01*
X659856Y92206D01*
X659814Y91979D01*
X659812Y91924D01*
X659804Y91870D01*
X659800Y91640D01*
X659791Y91410D01*
X659797Y91355D01*
X659796Y91300D01*
X659825Y91072D01*
X659848Y90843D01*
X659861Y90790D01*
X659868Y90735D01*
X659929Y90512D01*
X659983Y90289D01*
X660004Y90238D01*
X660018Y90185D01*
X660110Y89974D01*
X660195Y89760D01*
X660222Y89713D01*
X660244Y89662D01*
X660364Y89465D01*
X660479Y89266D01*
X660507Y89232D01*
X660541Y89176D01*
X660903Y88736D01*
X660951Y88692D01*
X660979Y88657D01*
X662179Y87458D01*
X662179Y64942D01*
X656752Y59515D01*
X656676Y59428D01*
X656594Y59348D01*
X656489Y59213D01*
X656378Y59085D01*
X656315Y58988D01*
X656245Y58897D01*
X656161Y58750D01*
X656068Y58607D01*
X656020Y58502D01*
X655963Y58402D01*
X655900Y58244D01*
X655828Y58090D01*
X655795Y57980D01*
X655752Y57873D01*
X655712Y57707D01*
X655663Y57545D01*
X655645Y57431D01*
X655618Y57319D01*
X655602Y57149D01*
X655576Y56982D01*
X655574Y56867D01*
X655563Y56752D01*
X655570Y56582D01*
X655568Y56412D01*
X655583Y56298D01*
X655588Y56182D01*
X655619Y56015D01*
X655640Y55847D01*
X655671Y55735D01*
X655692Y55622D01*
X655746Y55461D01*
X655791Y55297D01*
X655836Y55191D01*
X655873Y55082D01*
X655949Y54930D01*
X656016Y54774D01*
X656076Y54676D01*
X656128Y54573D01*
X656225Y54433D01*
X656313Y54288D01*
X656386Y54199D01*
X656452Y54104D01*
X656567Y53979D01*
X656675Y53847D01*
X656760Y53770D01*
X656838Y53685D01*
X656970Y53577D01*
X657095Y53462D01*
X657190Y53397D01*
X657279Y53324D01*
X657425Y53236D01*
X657565Y53140D01*
X657668Y53088D01*
X657766Y53029D01*
X657922Y52962D01*
X658075Y52886D01*
X658184Y52850D01*
X658290Y52804D01*
X658454Y52760D01*
X658616Y52706D01*
X658729Y52685D01*
X658840Y52655D01*
X658955Y52644D01*
X659176Y52604D01*
X659508Y52590D01*
X659625Y52579D01*
X678008Y52579D01*
X693929Y36658D01*
X693929Y14224D01*
X693945Y13995D01*
X693955Y13764D01*
X693965Y13710D01*
X693969Y13656D01*
X694017Y13430D01*
X694059Y13204D01*
X694076Y13152D01*
X694088Y13098D01*
X694167Y12882D01*
X694240Y12664D01*
X694265Y12615D01*
X694284Y12563D01*
X694392Y12360D01*
X694495Y12155D01*
X694526Y12109D01*
X694552Y12061D01*
X694688Y11875D01*
X694819Y11686D01*
X694856Y11645D01*
X694889Y11601D01*
X695049Y11436D01*
X695205Y11267D01*
X695248Y11232D01*
X695286Y11193D01*
X695468Y11052D01*
X695646Y10906D01*
X695694Y10878D01*
X695737Y10844D01*
X695937Y10730D01*
X696134Y10611D01*
X696184Y10589D01*
X696232Y10562D01*
X696446Y10477D01*
X696657Y10386D01*
X696710Y10372D01*
X696761Y10352D01*
X696986Y10297D01*
X697207Y10237D01*
X697251Y10233D01*
X697315Y10217D01*
X697882Y10162D01*
X697948Y10165D01*
X697992Y10161D01*
X785776Y10161D01*
X786005Y10177D01*
X786236Y10187D01*
X786290Y10197D01*
X786344Y10201D01*
X786570Y10249D01*
X786796Y10291D01*
X786848Y10308D01*
X786902Y10320D01*
X787118Y10399D01*
X787336Y10472D01*
X787385Y10497D01*
X787437Y10516D01*
X787640Y10624D01*
X787845Y10727D01*
X787891Y10758D01*
X787939Y10784D01*
X788125Y10920D01*
X788314Y11051D01*
X788355Y11088D01*
X788399Y11121D01*
X788564Y11281D01*
X788733Y11437D01*
X788768Y11480D01*
X788807Y11518D01*
X788948Y11700D01*
X789094Y11878D01*
X789122Y11926D01*
X789156Y11969D01*
X789270Y12169D01*
X789389Y12366D01*
X789411Y12416D01*
X789438Y12464D01*
X789523Y12678D01*
X789614Y12889D01*
X789628Y12942D01*
X789648Y12993D01*
X789703Y13218D01*
X789763Y13439D01*
X789767Y13483D01*
X789783Y13547D01*
X789838Y14114D01*
X789835Y14180D01*
X789839Y14224D01*
X789839Y335776D01*
X789823Y336005D01*
X789813Y336236D01*
X789803Y336290D01*
X789799Y336344D01*
X789751Y336570D01*
X789709Y336796D01*
X789692Y336848D01*
X789680Y336902D01*
X789601Y337118D01*
X789528Y337336D01*
X789503Y337385D01*
X789484Y337437D01*
X789376Y337640D01*
X789273Y337845D01*
X789242Y337891D01*
X789216Y337939D01*
X789080Y338125D01*
X788949Y338314D01*
X788912Y338355D01*
X788879Y338399D01*
X788719Y338564D01*
X788563Y338733D01*
X788520Y338768D01*
X788482Y338807D01*
X788300Y338948D01*
X788122Y339094D01*
X788074Y339122D01*
X788031Y339156D01*
X787831Y339270D01*
X787634Y339389D01*
X787584Y339411D01*
X787536Y339438D01*
X787322Y339523D01*
X787111Y339614D01*
X787058Y339628D01*
X787007Y339648D01*
X786782Y339703D01*
X786561Y339763D01*
X786517Y339767D01*
X786453Y339783D01*
X785886Y339838D01*
X785820Y339835D01*
X785776Y339839D01*
X254000Y339839D01*
X253771Y339823D01*
X253540Y339813D01*
X253486Y339803D01*
X253432Y339799D01*
X253206Y339751D01*
X252980Y339709D01*
X252928Y339692D01*
X252874Y339680D01*
X252658Y339601D01*
X252440Y339528D01*
X252391Y339503D01*
X252339Y339484D01*
X252136Y339376D01*
X251931Y339273D01*
X251885Y339242D01*
X251837Y339216D01*
X251651Y339080D01*
X251462Y338949D01*
X251421Y338912D01*
X251377Y338879D01*
X251212Y338719D01*
X251043Y338563D01*
X251008Y338520D01*
X250969Y338482D01*
X250828Y338300D01*
X250682Y338122D01*
X250654Y338074D01*
X250620Y338031D01*
X250506Y337831D01*
X250387Y337634D01*
X250365Y337584D01*
X250338Y337536D01*
X250253Y337322D01*
X250162Y337111D01*
X250148Y337058D01*
X250128Y337007D01*
X250073Y336782D01*
X250013Y336561D01*
X250009Y336517D01*
X249994Y336453D01*
X249938Y335886D01*
X249941Y335820D01*
X249937Y335776D01*
X249937Y284192D01*
X249953Y283963D01*
X249963Y283732D01*
X249973Y283678D01*
X249977Y283624D01*
X250025Y283398D01*
X250067Y283172D01*
X250084Y283120D01*
X250096Y283066D01*
X250175Y282850D01*
X250248Y282632D01*
X250273Y282583D01*
X250292Y282531D01*
X250400Y282328D01*
X250503Y282123D01*
X250534Y282077D01*
X250560Y282029D01*
X250696Y281843D01*
X250827Y281654D01*
X250864Y281613D01*
X250897Y281569D01*
X251057Y281404D01*
X251213Y281235D01*
X251256Y281200D01*
X251294Y281161D01*
X251476Y281020D01*
X251654Y280874D01*
X251702Y280846D01*
X251745Y280812D01*
X251945Y280698D01*
X252142Y280579D01*
X252192Y280557D01*
X252240Y280530D01*
X252454Y280445D01*
X252665Y280354D01*
X252718Y280340D01*
X252769Y280320D01*
X252994Y280265D01*
X253215Y280205D01*
X253259Y280201D01*
X253323Y280185D01*
X253890Y280130D01*
X253956Y280133D01*
X254000Y280129D01*
X266017Y280129D01*
X267530Y279502D01*
X267642Y279465D01*
X267750Y279418D01*
X267912Y279374D01*
X268070Y279321D01*
X268186Y279300D01*
X268300Y279269D01*
X268414Y279258D01*
X268631Y279218D01*
X268969Y279204D01*
X269085Y279193D01*
X434231Y279193D01*
X434315Y279165D01*
X434423Y279118D01*
X434584Y279075D01*
X434743Y279021D01*
X434859Y279000D01*
X434973Y278969D01*
X435087Y278958D01*
X435304Y278918D01*
X435642Y278904D01*
X435758Y278893D01*
X497725Y278893D01*
X502207Y277036D01*
X518336Y260907D01*
X520193Y256425D01*
X520193Y215486D01*
X520197Y215426D01*
X520195Y215365D01*
X520217Y215142D01*
X520233Y214918D01*
X520245Y214859D01*
X520251Y214799D01*
X520305Y214580D01*
X520352Y214360D01*
X520372Y214304D01*
X520387Y214245D01*
X520470Y214036D01*
X520548Y213825D01*
X520576Y213772D01*
X520599Y213716D01*
X520710Y213521D01*
X520816Y213323D01*
X520852Y213274D01*
X520882Y213222D01*
X520957Y213131D01*
X521153Y212863D01*
X521310Y212702D01*
X521383Y212613D01*
X522891Y211104D01*
X524129Y208117D01*
X524129Y191854D01*
X524091Y191728D01*
X524019Y191515D01*
X524008Y191455D01*
X523991Y191397D01*
X523957Y191175D01*
X523916Y190954D01*
X523914Y190894D01*
X523904Y190834D01*
X523902Y190609D01*
X523892Y190385D01*
X523898Y190325D01*
X523897Y190264D01*
X523926Y190042D01*
X523948Y189818D01*
X523963Y189759D01*
X523970Y189699D01*
X524005Y189587D01*
X524083Y189264D01*
X524129Y189150D01*
X524129Y172883D01*
X522614Y169226D01*
X522520Y169024D01*
X522519Y169020D01*
X522517Y169016D01*
X522436Y168747D01*
X522355Y168479D01*
X522354Y168475D01*
X522353Y168471D01*
X522310Y168192D01*
X522267Y167916D01*
X522267Y167912D01*
X522266Y167908D01*
X522263Y167629D01*
X522259Y167346D01*
X522259Y167342D01*
X522259Y167338D01*
X522295Y167063D01*
X522330Y166781D01*
X522331Y166777D01*
X522332Y166773D01*
X522338Y166753D01*
X522480Y166232D01*
X522536Y166101D01*
X522562Y166019D01*
X523749Y163153D01*
X523749Y141647D01*
X521347Y135850D01*
X521343Y135845D01*
X521299Y135804D01*
X521157Y135630D01*
X521009Y135461D01*
X520976Y135410D01*
X520938Y135363D01*
X520822Y135171D01*
X520699Y134983D01*
X520674Y134928D01*
X520643Y134876D01*
X520554Y134670D01*
X520460Y134466D01*
X520442Y134408D01*
X520418Y134352D01*
X520359Y134135D01*
X520294Y133920D01*
X520285Y133861D01*
X520269Y133802D01*
X520258Y133685D01*
X520207Y133357D01*
X520204Y133132D01*
X520193Y133018D01*
X520193Y124575D01*
X518336Y120093D01*
X502207Y103964D01*
X497725Y102107D01*
X454775Y102107D01*
X450293Y103964D01*
X402540Y151717D01*
X402494Y151757D01*
X402453Y151801D01*
X402279Y151943D01*
X402110Y152091D01*
X402059Y152124D01*
X402012Y152162D01*
X401820Y152279D01*
X401631Y152401D01*
X401577Y152426D01*
X401525Y152457D01*
X401319Y152546D01*
X401114Y152641D01*
X401057Y152658D01*
X401001Y152682D01*
X400784Y152740D01*
X400569Y152806D01*
X400509Y152815D01*
X400451Y152831D01*
X400334Y152842D01*
X400006Y152893D01*
X399781Y152896D01*
X399667Y152907D01*
X329786Y152907D01*
X329726Y152903D01*
X329665Y152905D01*
X329442Y152883D01*
X329218Y152867D01*
X329159Y152855D01*
X329099Y152849D01*
X328880Y152795D01*
X328660Y152748D01*
X328604Y152728D01*
X328545Y152713D01*
X328336Y152630D01*
X328125Y152552D01*
X328072Y152524D01*
X328016Y152501D01*
X327821Y152390D01*
X327623Y152284D01*
X327574Y152248D01*
X327522Y152218D01*
X327431Y152143D01*
X327163Y151947D01*
X327002Y151790D01*
X326913Y151717D01*
X325404Y150209D01*
X322417Y148971D01*
X306154Y148971D01*
X306028Y149009D01*
X305815Y149081D01*
X305755Y149092D01*
X305697Y149109D01*
X305475Y149143D01*
X305254Y149184D01*
X305194Y149186D01*
X305134Y149196D01*
X304909Y149198D01*
X304685Y149208D01*
X304625Y149202D01*
X304564Y149203D01*
X304342Y149174D01*
X304118Y149152D01*
X304059Y149137D01*
X303999Y149130D01*
X303887Y149095D01*
X303564Y149017D01*
X303450Y148971D01*
X287183Y148971D01*
X284195Y150209D01*
X281876Y152529D01*
X281864Y152551D01*
X281736Y152809D01*
X281734Y152811D01*
X281733Y152813D01*
X281573Y153045D01*
X281413Y153278D01*
X281411Y153280D01*
X281409Y153282D01*
X281226Y153481D01*
X281027Y153697D01*
X281025Y153699D01*
X281023Y153701D01*
X280801Y153883D01*
X280586Y154059D01*
X280584Y154060D01*
X280582Y154062D01*
X280344Y154206D01*
X280099Y154355D01*
X280097Y154356D01*
X280095Y154357D01*
X279845Y154464D01*
X279576Y154580D01*
X279573Y154581D01*
X279571Y154582D01*
X279300Y154655D01*
X279026Y154730D01*
X279024Y154730D01*
X279021Y154731D01*
X279007Y154732D01*
X278461Y154801D01*
X278321Y154799D01*
X278236Y154807D01*
X276592Y154807D01*
X276363Y154791D01*
X276132Y154781D01*
X276078Y154771D01*
X276024Y154767D01*
X275798Y154719D01*
X275572Y154677D01*
X275520Y154660D01*
X275466Y154648D01*
X275250Y154569D01*
X275032Y154496D01*
X274983Y154471D01*
X274931Y154452D01*
X274728Y154344D01*
X274523Y154241D01*
X274477Y154210D01*
X274429Y154184D01*
X274243Y154048D01*
X274054Y153917D01*
X274013Y153880D01*
X273969Y153847D01*
X273804Y153687D01*
X273635Y153531D01*
X273600Y153488D01*
X273561Y153450D01*
X273420Y153268D01*
X273274Y153090D01*
X273246Y153042D01*
X273212Y152999D01*
X273098Y152799D01*
X272979Y152602D01*
X272957Y152552D01*
X272930Y152504D01*
X272845Y152290D01*
X272754Y152079D01*
X272740Y152026D01*
X272720Y151975D01*
X272665Y151750D01*
X272605Y151529D01*
X272601Y151485D01*
X272585Y151421D01*
X272530Y150854D01*
X272533Y150788D01*
X272529Y150744D01*
X272529Y140383D01*
X271291Y137395D01*
X268925Y135029D01*
X268692Y134868D01*
X268470Y134715D01*
X268468Y134713D01*
X268466Y134712D01*
X268249Y134512D01*
X268051Y134330D01*
X268049Y134327D01*
X268047Y134326D01*
X267856Y134093D01*
X267689Y133889D01*
X267688Y133887D01*
X267686Y133885D01*
X267531Y133629D01*
X267393Y133402D01*
X267392Y133400D01*
X267391Y133397D01*
X267280Y133140D01*
X267168Y132879D01*
X267167Y132876D01*
X267166Y132874D01*
X267095Y132611D01*
X267018Y132329D01*
X267018Y132326D01*
X267017Y132324D01*
X267016Y132311D01*
X266947Y131764D01*
X266949Y131624D01*
X266941Y131539D01*
X266941Y131063D01*
X251900Y131063D01*
X251671Y131047D01*
X251441Y131037D01*
X251387Y131027D01*
X251332Y131023D01*
X251107Y130975D01*
X250881Y130933D01*
X250828Y130916D01*
X250775Y130904D01*
X250559Y130825D01*
X250340Y130752D01*
X250291Y130727D01*
X250240Y130709D01*
X250037Y130600D01*
X249831Y130497D01*
X249786Y130466D01*
X249737Y130440D01*
X249552Y130304D01*
X249362Y130173D01*
X249322Y130136D01*
X249277Y130103D01*
X249112Y129943D01*
X248943Y129787D01*
X248943Y129786D01*
X248908Y129744D01*
X248869Y129705D01*
X248728Y129524D01*
X248582Y129345D01*
X248553Y129298D01*
X248520Y129255D01*
X248406Y129055D01*
X248286Y128858D01*
X248265Y128808D01*
X248238Y128760D01*
X248152Y128545D01*
X248062Y128334D01*
X248048Y128282D01*
X248027Y128230D01*
X247973Y128006D01*
X247913Y127784D01*
X247909Y127740D01*
X247893Y127676D01*
X247838Y127109D01*
X247841Y127044D01*
X247837Y127000D01*
X247837Y119125D01*
X247781Y119104D01*
X247679Y119050D01*
X247573Y119004D01*
X247428Y118916D01*
X247278Y118836D01*
X247185Y118768D01*
X247087Y118708D01*
X246956Y118600D01*
X246818Y118499D01*
X246736Y118419D01*
X246647Y118346D01*
X246532Y118221D01*
X246410Y118102D01*
X246340Y118011D01*
X246262Y117926D01*
X246165Y117786D01*
X246061Y117651D01*
X246004Y117551D01*
X245939Y117456D01*
X245863Y117304D01*
X245779Y117156D01*
X245737Y117049D01*
X245685Y116946D01*
X245632Y116785D01*
X245569Y116627D01*
X245542Y116515D01*
X245505Y116405D01*
X245475Y116238D01*
X245435Y116073D01*
X245424Y115958D01*
X245403Y115845D01*
X245396Y115675D01*
X245380Y115506D01*
X245385Y115391D01*
X245380Y115275D01*
X245397Y115106D01*
X245404Y114937D01*
X245425Y114823D01*
X245437Y114709D01*
X245477Y114544D01*
X245508Y114376D01*
X245545Y114267D01*
X245572Y114155D01*
X245635Y113997D01*
X245689Y113836D01*
X245741Y113733D01*
X245784Y113626D01*
X245869Y113478D01*
X245945Y113327D01*
X246010Y113232D01*
X246067Y113132D01*
X246141Y113043D01*
X246268Y112858D01*
X246493Y112614D01*
X246568Y112523D01*
X258078Y101013D01*
X258124Y100973D01*
X258165Y100929D01*
X258339Y100787D01*
X258508Y100639D01*
X258559Y100606D01*
X258606Y100568D01*
X258798Y100451D01*
X258987Y100329D01*
X259041Y100304D01*
X259093Y100273D01*
X259299Y100184D01*
X259503Y100089D01*
X259561Y100072D01*
X259617Y100048D01*
X259833Y99990D01*
X260049Y99924D01*
X260108Y99915D01*
X260167Y99899D01*
X260284Y99888D01*
X260612Y99837D01*
X260837Y99834D01*
X260951Y99823D01*
X280050Y99823D01*
X283598Y98353D01*
X294935Y87016D01*
X295022Y86941D01*
X295102Y86858D01*
X295237Y86754D01*
X295365Y86642D01*
X295462Y86580D01*
X295553Y86509D01*
X295701Y86425D01*
X295843Y86333D01*
X295948Y86284D01*
X296048Y86227D01*
X296206Y86164D01*
X296360Y86093D01*
X296470Y86059D01*
X296577Y86017D01*
X296743Y85977D01*
X296905Y85928D01*
X297019Y85910D01*
X297131Y85883D01*
X297301Y85866D01*
X297468Y85840D01*
X297583Y85839D01*
X297698Y85828D01*
X297868Y85835D01*
X298038Y85833D01*
X298152Y85847D01*
X298268Y85852D01*
X298435Y85883D01*
X298603Y85905D01*
X298715Y85935D01*
X298828Y85956D01*
X298989Y86010D01*
X299153Y86055D01*
X299259Y86101D01*
X299368Y86137D01*
X299520Y86214D01*
X299676Y86281D01*
X299774Y86341D01*
X299877Y86393D01*
X300017Y86489D01*
X300162Y86578D01*
X300251Y86651D01*
X300346Y86716D01*
X300471Y86832D01*
X300603Y86940D01*
X300680Y87025D01*
X300765Y87103D01*
X300873Y87234D01*
X300988Y87360D01*
X301053Y87454D01*
X301126Y87544D01*
X301214Y87689D01*
X301310Y87829D01*
X301362Y87932D01*
X301421Y88031D01*
X301488Y88187D01*
X301564Y88339D01*
X301600Y88449D01*
X301646Y88555D01*
X301690Y88719D01*
X301744Y88880D01*
X301765Y88993D01*
X301795Y89105D01*
X301806Y89219D01*
X301846Y89441D01*
X301860Y89772D01*
X301871Y89889D01*
X301871Y106517D01*
X303109Y109505D01*
X305395Y111791D01*
X308383Y113029D01*
X326617Y113029D01*
X329605Y111791D01*
X329613Y111783D01*
X329659Y111743D01*
X329699Y111699D01*
X329873Y111557D01*
X330043Y111409D01*
X330094Y111376D01*
X330140Y111338D01*
X330333Y111221D01*
X330521Y111099D01*
X330576Y111074D01*
X330628Y111043D01*
X330834Y110954D01*
X331038Y110859D01*
X331096Y110842D01*
X331151Y110818D01*
X331368Y110760D01*
X331583Y110694D01*
X331643Y110685D01*
X331701Y110669D01*
X331818Y110658D01*
X332146Y110607D01*
X332371Y110604D01*
X332486Y110593D01*
X337108Y110593D01*
X337337Y110609D01*
X337568Y110619D01*
X337622Y110629D01*
X337676Y110633D01*
X337902Y110681D01*
X338128Y110723D01*
X338180Y110740D01*
X338234Y110752D01*
X338450Y110831D01*
X338668Y110904D01*
X338717Y110929D01*
X338769Y110948D01*
X338972Y111056D01*
X339177Y111159D01*
X339223Y111190D01*
X339271Y111216D01*
X339457Y111352D01*
X339646Y111483D01*
X339687Y111520D01*
X339731Y111553D01*
X339896Y111713D01*
X340065Y111869D01*
X340100Y111912D01*
X340139Y111950D01*
X340280Y112132D01*
X340426Y112310D01*
X340454Y112358D01*
X340488Y112401D01*
X340602Y112601D01*
X340721Y112798D01*
X340743Y112848D01*
X340770Y112896D01*
X340855Y113110D01*
X340946Y113321D01*
X340960Y113374D01*
X340980Y113425D01*
X341035Y113650D01*
X341095Y113871D01*
X341099Y113915D01*
X341115Y113979D01*
X341170Y114546D01*
X341167Y114612D01*
X341171Y114656D01*
X341171Y132017D01*
X342409Y135005D01*
X344695Y137291D01*
X347683Y138529D01*
X388917Y138529D01*
X391905Y137291D01*
X394191Y135005D01*
X395429Y132017D01*
X395429Y108783D01*
X394191Y105795D01*
X391905Y103509D01*
X388917Y102271D01*
X369281Y102271D01*
X369166Y102263D01*
X369051Y102265D01*
X368883Y102243D01*
X368713Y102231D01*
X368600Y102207D01*
X368486Y102193D01*
X368322Y102148D01*
X368156Y102112D01*
X368048Y102073D01*
X367936Y102042D01*
X367780Y101975D01*
X367621Y101916D01*
X367519Y101862D01*
X367413Y101816D01*
X367268Y101728D01*
X367118Y101648D01*
X367025Y101580D01*
X366927Y101520D01*
X366796Y101412D01*
X366658Y101311D01*
X366576Y101231D01*
X366487Y101158D01*
X366372Y101033D01*
X366250Y100914D01*
X366180Y100823D01*
X366102Y100738D01*
X366005Y100598D01*
X365901Y100463D01*
X365844Y100363D01*
X365779Y100268D01*
X365704Y100116D01*
X365619Y99968D01*
X365577Y99861D01*
X365525Y99758D01*
X365472Y99597D01*
X365409Y99439D01*
X365382Y99326D01*
X365346Y99217D01*
X365315Y99050D01*
X365275Y98885D01*
X365264Y98770D01*
X365243Y98657D01*
X365236Y98487D01*
X365220Y98318D01*
X365225Y98203D01*
X365220Y98087D01*
X365237Y97918D01*
X365244Y97748D01*
X365265Y97635D01*
X365277Y97521D01*
X365317Y97355D01*
X365348Y97188D01*
X365385Y97079D01*
X365412Y96967D01*
X365475Y96809D01*
X365530Y96648D01*
X365581Y96545D01*
X365624Y96438D01*
X365709Y96290D01*
X365785Y96139D01*
X365850Y96044D01*
X365907Y95944D01*
X365981Y95855D01*
X366109Y95670D01*
X366333Y95426D01*
X366408Y95335D01*
X378637Y83107D01*
X380736Y78037D01*
X380738Y78035D01*
X380738Y78032D01*
X380869Y77771D01*
X380991Y77527D01*
X380992Y77525D01*
X380994Y77523D01*
X381164Y77276D01*
X381314Y77058D01*
X381316Y77056D01*
X381317Y77054D01*
X381512Y76842D01*
X381700Y76639D01*
X381702Y76637D01*
X381704Y76635D01*
X381927Y76452D01*
X382140Y76277D01*
X382143Y76276D01*
X382145Y76274D01*
X382391Y76125D01*
X382627Y75981D01*
X382630Y75980D01*
X382632Y75979D01*
X382887Y75869D01*
X383150Y75756D01*
X383153Y75755D01*
X383156Y75754D01*
X383425Y75681D01*
X383700Y75606D01*
X383703Y75606D01*
X383706Y75605D01*
X383719Y75604D01*
X384266Y75535D01*
X384405Y75537D01*
X384490Y75529D01*
X390071Y75529D01*
X390188Y75537D01*
X390306Y75536D01*
X390472Y75557D01*
X390639Y75569D01*
X390754Y75593D01*
X390871Y75608D01*
X390981Y75642D01*
X391196Y75688D01*
X391210Y75693D01*
X488567Y75693D01*
X488627Y75697D01*
X488687Y75695D01*
X488911Y75717D01*
X489135Y75733D01*
X489194Y75745D01*
X489254Y75751D01*
X489472Y75805D01*
X489692Y75852D01*
X489749Y75872D01*
X489807Y75887D01*
X490016Y75970D01*
X490227Y76048D01*
X490280Y76076D01*
X490336Y76098D01*
X490531Y76210D01*
X490730Y76316D01*
X490778Y76352D01*
X490831Y76382D01*
X490922Y76457D01*
X491189Y76653D01*
X491351Y76810D01*
X491440Y76883D01*
X545059Y130502D01*
X545210Y130676D01*
X545366Y130846D01*
X545397Y130891D01*
X545433Y130933D01*
X545558Y131126D01*
X545688Y131315D01*
X545713Y131365D01*
X545743Y131411D01*
X545840Y131620D01*
X545942Y131826D01*
X545959Y131878D01*
X545983Y131928D01*
X546049Y132148D01*
X546122Y132366D01*
X546132Y132420D01*
X546148Y132473D01*
X546183Y132700D01*
X546224Y132927D01*
X546227Y132982D01*
X546235Y133036D01*
X546238Y133266D01*
X546248Y133496D01*
X546242Y133551D01*
X546243Y133606D01*
X546214Y133834D01*
X546191Y134063D01*
X546178Y134116D01*
X546171Y134171D01*
X546110Y134393D01*
X546055Y134616D01*
X546035Y134667D01*
X546020Y134720D01*
X545929Y134932D01*
X545844Y135145D01*
X545816Y135193D01*
X545794Y135244D01*
X545675Y135440D01*
X545560Y135640D01*
X545532Y135674D01*
X545512Y135706D01*
X543051Y141647D01*
X543051Y163153D01*
X544012Y165472D01*
X544049Y165584D01*
X544096Y165692D01*
X544139Y165853D01*
X544193Y166012D01*
X544214Y166128D01*
X544245Y166242D01*
X544256Y166356D01*
X544296Y166573D01*
X544310Y166911D01*
X544321Y167027D01*
X544321Y180680D01*
X546526Y186002D01*
X626798Y266274D01*
X632120Y268479D01*
X714080Y268479D01*
X719402Y266274D01*
X738207Y247469D01*
X738253Y247429D01*
X738294Y247385D01*
X738468Y247243D01*
X738637Y247095D01*
X738688Y247062D01*
X738735Y247024D01*
X738927Y246907D01*
X739116Y246785D01*
X739170Y246760D01*
X739222Y246729D01*
X739428Y246640D01*
X739632Y246545D01*
X739690Y246528D01*
X739746Y246504D01*
X739962Y246446D01*
X740178Y246380D01*
X740237Y246371D01*
X740296Y246355D01*
X740413Y246344D01*
X740741Y246293D01*
X740966Y246290D01*
X741080Y246279D01*
X747896Y246279D01*
X748125Y246295D01*
X748356Y246305D01*
X748410Y246315D01*
X748464Y246319D01*
X748690Y246367D01*
X748916Y246409D01*
X748968Y246426D01*
X749022Y246438D01*
X749238Y246517D01*
X749456Y246590D01*
X749505Y246615D01*
X749557Y246634D01*
X749749Y246737D01*
X762000Y246737D01*
X772590Y246737D01*
X772664Y246598D01*
X772666Y246596D01*
X772667Y246593D01*
X772842Y246355D01*
X773001Y246138D01*
X773003Y246136D01*
X773004Y246134D01*
X773206Y245928D01*
X773398Y245730D01*
X773400Y245728D01*
X773402Y245726D01*
X773632Y245549D01*
X773849Y245381D01*
X773851Y245380D01*
X773853Y245378D01*
X773866Y245372D01*
X774002Y245294D01*
X776391Y242905D01*
X777629Y239917D01*
X777629Y225250D01*
X777633Y225190D01*
X777631Y225130D01*
X777653Y224906D01*
X777669Y224682D01*
X777681Y224623D01*
X777687Y224563D01*
X777741Y224344D01*
X777788Y224124D01*
X777808Y224068D01*
X777823Y224009D01*
X777906Y223800D01*
X777984Y223589D01*
X778012Y223536D01*
X778034Y223480D01*
X778146Y223285D01*
X778252Y223087D01*
X778288Y223038D01*
X778318Y222986D01*
X778393Y222895D01*
X778589Y222627D01*
X778746Y222466D01*
X778819Y222377D01*
X779891Y221305D01*
X781129Y218317D01*
X781129Y203083D01*
X779891Y200095D01*
X777605Y197809D01*
X774617Y196571D01*
X766533Y196571D01*
X766415Y196563D01*
X766298Y196564D01*
X766132Y196543D01*
X765965Y196531D01*
X765849Y196507D01*
X765733Y196492D01*
X765623Y196458D01*
X765408Y196412D01*
X765089Y196296D01*
X764978Y196262D01*
X764880Y196221D01*
X759120Y196221D01*
X759022Y196262D01*
X758910Y196299D01*
X758801Y196346D01*
X758640Y196390D01*
X758481Y196443D01*
X758365Y196464D01*
X758252Y196495D01*
X758138Y196506D01*
X757921Y196546D01*
X757583Y196560D01*
X757467Y196571D01*
X749383Y196571D01*
X746395Y197809D01*
X744109Y200095D01*
X742871Y203083D01*
X742871Y213258D01*
X742855Y213487D01*
X742845Y213718D01*
X742835Y213772D01*
X742831Y213826D01*
X742783Y214052D01*
X742741Y214278D01*
X742724Y214330D01*
X742712Y214384D01*
X742633Y214600D01*
X742560Y214818D01*
X742535Y214867D01*
X742516Y214919D01*
X742408Y215122D01*
X742305Y215327D01*
X742274Y215373D01*
X742248Y215421D01*
X742112Y215607D01*
X741981Y215796D01*
X741944Y215837D01*
X741911Y215881D01*
X741751Y216046D01*
X741595Y216215D01*
X741552Y216250D01*
X741514Y216289D01*
X741332Y216430D01*
X741154Y216576D01*
X741106Y216604D01*
X741063Y216638D01*
X740863Y216752D01*
X740666Y216871D01*
X740616Y216893D01*
X740568Y216920D01*
X740354Y217005D01*
X740143Y217096D01*
X740090Y217110D01*
X740039Y217130D01*
X739814Y217185D01*
X739593Y217245D01*
X739549Y217249D01*
X739485Y217265D01*
X738918Y217320D01*
X738852Y217317D01*
X738808Y217321D01*
X737604Y217321D01*
X737375Y217305D01*
X737144Y217295D01*
X737090Y217285D01*
X737036Y217281D01*
X736810Y217233D01*
X736584Y217191D01*
X736532Y217174D01*
X736478Y217162D01*
X736262Y217083D01*
X736044Y217010D01*
X735995Y216985D01*
X735943Y216966D01*
X735740Y216858D01*
X735535Y216755D01*
X735489Y216724D01*
X735441Y216698D01*
X735255Y216562D01*
X735066Y216431D01*
X735025Y216394D01*
X734981Y216361D01*
X734816Y216201D01*
X734647Y216045D01*
X734612Y216002D01*
X734573Y215964D01*
X734432Y215782D01*
X734286Y215604D01*
X734258Y215556D01*
X734224Y215513D01*
X734110Y215313D01*
X733991Y215116D01*
X733969Y215066D01*
X733942Y215018D01*
X733857Y214804D01*
X733766Y214593D01*
X733752Y214540D01*
X733732Y214489D01*
X733677Y214264D01*
X733617Y214043D01*
X733613Y213999D01*
X733597Y213935D01*
X733542Y213368D01*
X733545Y213302D01*
X733541Y213258D01*
X733541Y196027D01*
X707127Y196027D01*
X707127Y219441D01*
X715474Y219441D01*
X715589Y219449D01*
X715704Y219447D01*
X715872Y219469D01*
X716042Y219481D01*
X716155Y219505D01*
X716269Y219519D01*
X716433Y219564D01*
X716599Y219600D01*
X716707Y219639D01*
X716819Y219670D01*
X716975Y219737D01*
X717134Y219796D01*
X717236Y219850D01*
X717342Y219896D01*
X717487Y219984D01*
X717637Y220064D01*
X717730Y220132D01*
X717828Y220192D01*
X717960Y220300D01*
X718097Y220401D01*
X718179Y220481D01*
X718268Y220554D01*
X718383Y220679D01*
X718505Y220798D01*
X718576Y220889D01*
X718653Y220974D01*
X718750Y221114D01*
X718854Y221249D01*
X718911Y221349D01*
X718976Y221444D01*
X719052Y221596D01*
X719136Y221744D01*
X719179Y221851D01*
X719230Y221954D01*
X719283Y222115D01*
X719346Y222273D01*
X719373Y222386D01*
X719410Y222495D01*
X719440Y222662D01*
X719480Y222827D01*
X719491Y222942D01*
X719512Y223055D01*
X719519Y223225D01*
X719535Y223394D01*
X719531Y223509D01*
X719535Y223625D01*
X719518Y223794D01*
X719511Y223964D01*
X719490Y224077D01*
X719478Y224191D01*
X719438Y224357D01*
X719407Y224524D01*
X719370Y224633D01*
X719343Y224745D01*
X719280Y224903D01*
X719226Y225064D01*
X719174Y225167D01*
X719131Y225274D01*
X719047Y225421D01*
X718970Y225573D01*
X718905Y225668D01*
X718848Y225768D01*
X718774Y225857D01*
X718647Y226042D01*
X718422Y226286D01*
X718347Y226377D01*
X706393Y238331D01*
X706347Y238371D01*
X706306Y238415D01*
X706132Y238557D01*
X705963Y238705D01*
X705912Y238738D01*
X705865Y238776D01*
X705673Y238893D01*
X705484Y239015D01*
X705430Y239040D01*
X705378Y239071D01*
X705172Y239160D01*
X704968Y239255D01*
X704910Y239272D01*
X704854Y239296D01*
X704638Y239354D01*
X704422Y239420D01*
X704363Y239429D01*
X704304Y239445D01*
X704187Y239456D01*
X703859Y239507D01*
X703634Y239510D01*
X703520Y239521D01*
X642680Y239521D01*
X642620Y239517D01*
X642560Y239519D01*
X642336Y239497D01*
X642112Y239481D01*
X642053Y239469D01*
X641993Y239463D01*
X641775Y239409D01*
X641555Y239362D01*
X641498Y239342D01*
X641439Y239327D01*
X641231Y239244D01*
X641020Y239166D01*
X640966Y239138D01*
X640910Y239116D01*
X640715Y239004D01*
X640517Y238898D01*
X640469Y238862D01*
X640416Y238832D01*
X640325Y238757D01*
X640057Y238561D01*
X639896Y238404D01*
X639807Y238331D01*
X578289Y176813D01*
X578191Y176701D01*
X578086Y176595D01*
X578005Y176486D01*
X577916Y176383D01*
X577835Y176258D01*
X577745Y176138D01*
X577680Y176019D01*
X577606Y175905D01*
X577543Y175770D01*
X577471Y175639D01*
X577423Y175512D01*
X577366Y175388D01*
X577323Y175245D01*
X577270Y175106D01*
X577240Y174973D01*
X577201Y174843D01*
X577178Y174695D01*
X577145Y174550D01*
X577134Y174414D01*
X577113Y174280D01*
X577111Y174131D01*
X577099Y173982D01*
X577108Y173846D01*
X577106Y173710D01*
X577125Y173562D01*
X577134Y173413D01*
X577161Y173280D01*
X577178Y173145D01*
X577217Y173001D01*
X577247Y172855D01*
X577292Y172727D01*
X577328Y172595D01*
X577388Y172458D01*
X577437Y172318D01*
X577500Y172197D01*
X577554Y172072D01*
X577632Y171945D01*
X577701Y171812D01*
X577780Y171702D01*
X577851Y171586D01*
X577946Y171470D01*
X578033Y171349D01*
X578126Y171251D01*
X578213Y171146D01*
X578323Y171045D01*
X578426Y170937D01*
X578532Y170853D01*
X578633Y170760D01*
X578756Y170676D01*
X578873Y170583D01*
X578990Y170515D01*
X579102Y170438D01*
X579236Y170371D01*
X579365Y170296D01*
X579491Y170245D01*
X579613Y170184D01*
X579754Y170137D01*
X579892Y170081D01*
X580024Y170047D01*
X580137Y170010D01*
X580137Y152400D01*
X580137Y135447D01*
X578875Y136090D01*
X577922Y136782D01*
X577755Y136886D01*
X577593Y136997D01*
X577514Y137037D01*
X577438Y137084D01*
X577259Y137163D01*
X577083Y137251D01*
X576999Y137279D01*
X576918Y137315D01*
X576729Y137369D01*
X576542Y137431D01*
X576455Y137447D01*
X576370Y137471D01*
X576175Y137498D01*
X575982Y137533D01*
X575893Y137537D01*
X575805Y137549D01*
X575609Y137548D01*
X575413Y137556D01*
X575324Y137548D01*
X575235Y137547D01*
X575041Y137519D01*
X574846Y137500D01*
X574759Y137478D01*
X574671Y137466D01*
X574483Y137411D01*
X574292Y137364D01*
X574210Y137331D01*
X574124Y137306D01*
X573946Y137225D01*
X573763Y137152D01*
X573686Y137108D01*
X573605Y137072D01*
X573439Y136967D01*
X573269Y136869D01*
X573215Y136825D01*
X573124Y136767D01*
X572690Y136397D01*
X572674Y136379D01*
X572660Y136368D01*
X572183Y135891D01*
X572143Y135845D01*
X572099Y135804D01*
X571956Y135630D01*
X571809Y135460D01*
X571776Y135410D01*
X571738Y135363D01*
X571621Y135171D01*
X571499Y134982D01*
X571474Y134927D01*
X571443Y134876D01*
X571354Y134670D01*
X571259Y134465D01*
X571242Y134408D01*
X571218Y134352D01*
X571160Y134136D01*
X571094Y133920D01*
X571085Y133860D01*
X571069Y133802D01*
X571058Y133685D01*
X571007Y133357D01*
X571004Y133132D01*
X570993Y133018D01*
X570993Y124575D01*
X569136Y120093D01*
X502207Y53164D01*
X497725Y51307D01*
X410992Y51307D01*
X410763Y51291D01*
X410532Y51281D01*
X410478Y51271D01*
X410424Y51267D01*
X410198Y51219D01*
X409972Y51177D01*
X409920Y51160D01*
X409866Y51148D01*
X409650Y51069D01*
X409432Y50996D01*
X409383Y50971D01*
X409331Y50952D01*
X409128Y50844D01*
X408923Y50741D01*
X408877Y50710D01*
X408829Y50684D01*
X408643Y50548D01*
X408454Y50417D01*
X408413Y50380D01*
X408369Y50347D01*
X408204Y50187D01*
X408035Y50031D01*
X408000Y49988D01*
X407961Y49950D01*
X407820Y49768D01*
X407674Y49590D01*
X407646Y49542D01*
X407612Y49499D01*
X407498Y49299D01*
X407379Y49102D01*
X407357Y49052D01*
X407330Y49004D01*
X407245Y48790D01*
X407154Y48579D01*
X407140Y48526D01*
X407120Y48475D01*
X407065Y48250D01*
X407005Y48029D01*
X407001Y47985D01*
X406985Y47921D01*
X406930Y47354D01*
X406933Y47288D01*
X406929Y47244D01*
X406929Y45783D01*
X405691Y42795D01*
X403405Y40509D01*
X400417Y39271D01*
X383540Y39271D01*
X383311Y39255D01*
X383080Y39245D01*
X383026Y39235D01*
X382972Y39231D01*
X382746Y39183D01*
X382520Y39141D01*
X382468Y39124D01*
X382414Y39112D01*
X382198Y39033D01*
X381980Y38960D01*
X381931Y38935D01*
X381879Y38916D01*
X381676Y38808D01*
X381471Y38705D01*
X381425Y38674D01*
X381377Y38648D01*
X381191Y38512D01*
X381002Y38381D01*
X380961Y38344D01*
X380917Y38311D01*
X380752Y38151D01*
X380583Y37995D01*
X380548Y37952D01*
X380509Y37914D01*
X380368Y37732D01*
X380222Y37554D01*
X380194Y37506D01*
X380160Y37463D01*
X380046Y37263D01*
X379927Y37066D01*
X379905Y37016D01*
X379878Y36968D01*
X379793Y36754D01*
X379702Y36543D01*
X379688Y36490D01*
X379668Y36439D01*
X379613Y36214D01*
X379607Y36191D01*
X377775Y31769D01*
X372751Y26745D01*
X368643Y25043D01*
X334002Y25043D01*
X333942Y25039D01*
X333881Y25041D01*
X333658Y25019D01*
X333434Y25003D01*
X333375Y24991D01*
X333315Y24985D01*
X333096Y24931D01*
X332876Y24884D01*
X332820Y24863D01*
X332761Y24849D01*
X332553Y24766D01*
X332341Y24688D01*
X332288Y24660D01*
X332232Y24637D01*
X332037Y24526D01*
X331839Y24420D01*
X331790Y24384D01*
X331738Y24354D01*
X331647Y24279D01*
X331379Y24083D01*
X331218Y23926D01*
X331129Y23853D01*
X330104Y22829D01*
X327117Y21591D01*
X307883Y21591D01*
X304895Y22829D01*
X304887Y22837D01*
X304842Y22877D01*
X304801Y22921D01*
X304627Y23064D01*
X304457Y23211D01*
X304406Y23244D01*
X304360Y23282D01*
X304167Y23399D01*
X303979Y23521D01*
X303924Y23546D01*
X303872Y23577D01*
X303666Y23666D01*
X303462Y23760D01*
X303404Y23778D01*
X303349Y23802D01*
X303132Y23861D01*
X302917Y23926D01*
X302857Y23935D01*
X302799Y23951D01*
X302682Y23962D01*
X302354Y24013D01*
X302129Y24016D01*
X302014Y24027D01*
X266155Y24027D01*
X261673Y25884D01*
X257672Y29885D01*
X214777Y72780D01*
X214690Y72855D01*
X214610Y72938D01*
X214475Y73042D01*
X214347Y73153D01*
X214250Y73216D01*
X214159Y73287D01*
X214011Y73371D01*
X213869Y73463D01*
X213764Y73512D01*
X213664Y73569D01*
X213506Y73632D01*
X213352Y73703D01*
X213242Y73736D01*
X213135Y73779D01*
X212969Y73819D01*
X212807Y73868D01*
X212693Y73886D01*
X212581Y73913D01*
X212411Y73930D01*
X212244Y73956D01*
X212129Y73957D01*
X212014Y73968D01*
X211844Y73961D01*
X211674Y73963D01*
X211560Y73949D01*
X211444Y73944D01*
X211277Y73913D01*
X211109Y73891D01*
X210997Y73861D01*
X210884Y73840D01*
X210723Y73786D01*
X210559Y73741D01*
X210453Y73695D01*
X210344Y73658D01*
X210192Y73582D01*
X210036Y73515D01*
X209938Y73455D01*
X209835Y73403D01*
X209695Y73307D01*
X209550Y73218D01*
X209461Y73145D01*
X209366Y73079D01*
X209241Y72964D01*
X209109Y72856D01*
X209032Y72771D01*
X208947Y72693D01*
X208839Y72562D01*
X208724Y72436D01*
X208659Y72341D01*
X208586Y72252D01*
X208498Y72107D01*
X208402Y71967D01*
X208350Y71864D01*
X208291Y71765D01*
X208224Y71609D01*
X208148Y71456D01*
X208112Y71347D01*
X208066Y71241D01*
X208022Y71077D01*
X207968Y70916D01*
X207947Y70802D01*
X207917Y70691D01*
X207906Y70577D01*
X207866Y70355D01*
X207852Y70024D01*
X207841Y69907D01*
X207841Y67749D01*
X194486Y67749D01*
X194325Y67738D01*
X194223Y67748D01*
X194158Y67745D01*
X194114Y67749D01*
X180759Y67749D01*
X180759Y70104D01*
X180743Y70333D01*
X180733Y70564D01*
X180723Y70618D01*
X180719Y70672D01*
X180671Y70898D01*
X180629Y71124D01*
X180612Y71176D01*
X180600Y71230D01*
X180521Y71446D01*
X180448Y71664D01*
X180423Y71713D01*
X180404Y71765D01*
X180296Y71968D01*
X180193Y72173D01*
X180162Y72219D01*
X180136Y72267D01*
X180000Y72453D01*
X179869Y72642D01*
X179832Y72683D01*
X179799Y72727D01*
X179639Y72892D01*
X179483Y73061D01*
X179440Y73096D01*
X179402Y73135D01*
X179220Y73276D01*
X179042Y73422D01*
X178994Y73450D01*
X178951Y73484D01*
X178751Y73598D01*
X178554Y73717D01*
X178504Y73739D01*
X178456Y73766D01*
X178242Y73851D01*
X178031Y73942D01*
X177978Y73956D01*
X177927Y73976D01*
X177702Y74031D01*
X177481Y74091D01*
X177437Y74095D01*
X177373Y74111D01*
X176806Y74166D01*
X176740Y74163D01*
X176696Y74167D01*
X166204Y74167D01*
X165975Y74151D01*
X165744Y74141D01*
X165690Y74131D01*
X165636Y74127D01*
X165410Y74079D01*
X165184Y74037D01*
X165132Y74020D01*
X165078Y74008D01*
X164862Y73929D01*
X164644Y73856D01*
X164595Y73831D01*
X164543Y73812D01*
X164340Y73704D01*
X164135Y73601D01*
X164089Y73570D01*
X164041Y73544D01*
X163855Y73408D01*
X163666Y73277D01*
X163625Y73240D01*
X163581Y73207D01*
X163416Y73047D01*
X163247Y72891D01*
X163212Y72848D01*
X163173Y72810D01*
X163032Y72628D01*
X162886Y72450D01*
X162858Y72402D01*
X162824Y72359D01*
X162710Y72159D01*
X162591Y71962D01*
X162569Y71912D01*
X162542Y71864D01*
X162457Y71650D01*
X162366Y71439D01*
X162352Y71386D01*
X162332Y71335D01*
X162277Y71110D01*
X162217Y70889D01*
X162213Y70845D01*
X162197Y70781D01*
X162142Y70214D01*
X162145Y70148D01*
X162141Y70104D01*
X162141Y67749D01*
X148786Y67749D01*
X148625Y67738D01*
X148523Y67748D01*
X148458Y67745D01*
X148414Y67749D01*
X135059Y67749D01*
X135059Y70104D01*
X135043Y70333D01*
X135033Y70564D01*
X135023Y70618D01*
X135019Y70672D01*
X134971Y70898D01*
X134929Y71124D01*
X134912Y71176D01*
X134900Y71230D01*
X134821Y71446D01*
X134748Y71664D01*
X134723Y71713D01*
X134704Y71765D01*
X134596Y71968D01*
X134493Y72173D01*
X134462Y72219D01*
X134436Y72267D01*
X134300Y72453D01*
X134169Y72642D01*
X134132Y72683D01*
X134099Y72727D01*
X133939Y72892D01*
X133783Y73061D01*
X133740Y73096D01*
X133702Y73135D01*
X133520Y73276D01*
X133342Y73422D01*
X133294Y73450D01*
X133251Y73484D01*
X133051Y73598D01*
X132854Y73717D01*
X132804Y73739D01*
X132756Y73766D01*
X132542Y73851D01*
X132331Y73942D01*
X132278Y73956D01*
X132227Y73976D01*
X132002Y74031D01*
X131781Y74091D01*
X131737Y74095D01*
X131673Y74111D01*
X131106Y74166D01*
X131040Y74163D01*
X130996Y74167D01*
X100715Y74167D01*
X96233Y76024D01*
X77564Y94693D01*
X77230Y95499D01*
X77178Y95602D01*
X77136Y95709D01*
X77051Y95856D01*
X76976Y96008D01*
X76910Y96103D01*
X76853Y96203D01*
X76749Y96338D01*
X76652Y96478D01*
X76574Y96563D01*
X76504Y96654D01*
X76382Y96772D01*
X76267Y96897D01*
X76177Y96970D01*
X76095Y97050D01*
X75958Y97151D01*
X75826Y97258D01*
X75728Y97318D01*
X75634Y97386D01*
X75485Y97466D01*
X75339Y97555D01*
X75233Y97600D01*
X75132Y97654D01*
X74972Y97713D01*
X74816Y97780D01*
X74705Y97810D01*
X74596Y97849D01*
X74430Y97885D01*
X74266Y97929D01*
X74152Y97944D01*
X74039Y97968D01*
X73869Y97979D01*
X73701Y98001D01*
X73586Y97999D01*
X73471Y98007D01*
X73301Y97995D01*
X73131Y97992D01*
X73017Y97974D01*
X72902Y97966D01*
X72736Y97930D01*
X72568Y97904D01*
X72458Y97871D01*
X72345Y97846D01*
X72185Y97788D01*
X72023Y97738D01*
X71919Y97690D01*
X71810Y97650D01*
X71660Y97569D01*
X71506Y97498D01*
X71410Y97435D01*
X71308Y97380D01*
X71171Y97280D01*
X71029Y97187D01*
X70942Y97112D01*
X70849Y97043D01*
X70727Y96924D01*
X70599Y96813D01*
X70524Y96726D01*
X70441Y96645D01*
X70337Y96511D01*
X70226Y96382D01*
X70163Y96285D01*
X70093Y96194D01*
X70039Y96093D01*
X69917Y95904D01*
X69777Y95602D01*
X69722Y95499D01*
X69501Y94965D01*
X67983Y93447D01*
X67943Y93401D01*
X67899Y93361D01*
X67757Y93187D01*
X67609Y93017D01*
X67576Y92966D01*
X67538Y92920D01*
X67421Y92727D01*
X67299Y92539D01*
X67274Y92484D01*
X67243Y92432D01*
X67154Y92226D01*
X67059Y92022D01*
X67042Y91964D01*
X67018Y91909D01*
X66960Y91692D01*
X66894Y91477D01*
X66885Y91417D01*
X66869Y91359D01*
X66858Y91242D01*
X66807Y90914D01*
X66804Y90689D01*
X66793Y90574D01*
X66793Y83019D01*
X66793Y83017D01*
X66793Y83014D01*
X66814Y82718D01*
X66833Y82451D01*
X66833Y82448D01*
X66833Y82446D01*
X66897Y82150D01*
X66952Y81894D01*
X66953Y81891D01*
X66953Y81889D01*
X67050Y81624D01*
X67148Y81359D01*
X67149Y81356D01*
X67150Y81354D01*
X67281Y81110D01*
X67416Y80856D01*
X67418Y80854D01*
X67419Y80852D01*
X67585Y80625D01*
X67753Y80396D01*
X67755Y80394D01*
X67756Y80392D01*
X67948Y80196D01*
X68150Y79988D01*
X68152Y79986D01*
X68154Y79984D01*
X68376Y79814D01*
X68601Y79639D01*
X68603Y79638D01*
X68605Y79636D01*
X68617Y79630D01*
X69096Y79357D01*
X69226Y79306D01*
X69301Y79265D01*
X70205Y78891D01*
X72491Y76605D01*
X73729Y73617D01*
X73729Y53383D01*
X72491Y50395D01*
X70205Y48109D01*
X67217Y46871D01*
X41983Y46871D01*
X38995Y48109D01*
X36709Y50395D01*
X35471Y53383D01*
X35471Y61339D01*
X35467Y61400D01*
X35469Y61460D01*
X35447Y61683D01*
X35431Y61908D01*
X35419Y61967D01*
X35413Y62027D01*
X35359Y62245D01*
X35312Y62465D01*
X35292Y62522D01*
X35277Y62580D01*
X35194Y62789D01*
X35116Y63000D01*
X35088Y63053D01*
X35066Y63109D01*
X34954Y63304D01*
X34848Y63502D01*
X34812Y63551D01*
X34782Y63604D01*
X34707Y63695D01*
X34511Y63962D01*
X34354Y64123D01*
X34281Y64213D01*
X17097Y81397D01*
X17010Y81472D01*
X16930Y81555D01*
X16795Y81659D01*
X16667Y81770D01*
X16570Y81833D01*
X16479Y81903D01*
X16331Y81988D01*
X16189Y82080D01*
X16084Y82129D01*
X15984Y82186D01*
X15826Y82248D01*
X15672Y82320D01*
X15562Y82353D01*
X15455Y82396D01*
X15289Y82436D01*
X15127Y82485D01*
X15013Y82503D01*
X14901Y82530D01*
X14731Y82546D01*
X14564Y82572D01*
X14449Y82574D01*
X14334Y82585D01*
X14164Y82578D01*
X13994Y82580D01*
X13880Y82566D01*
X13764Y82561D01*
X13597Y82530D01*
X13429Y82508D01*
X13317Y82478D01*
X13204Y82457D01*
X13043Y82403D01*
X12879Y82358D01*
X12773Y82312D01*
X12664Y82275D01*
X12512Y82199D01*
X12356Y82132D01*
X12258Y82072D01*
X12155Y82020D01*
X12015Y81924D01*
X11870Y81835D01*
X11781Y81762D01*
X11686Y81696D01*
X11561Y81581D01*
X11429Y81473D01*
X11352Y81388D01*
X11267Y81310D01*
X11159Y81178D01*
X11044Y81053D01*
X10979Y80958D01*
X10906Y80869D01*
X10818Y80724D01*
X10722Y80584D01*
X10670Y80480D01*
X10611Y80382D01*
X10544Y80226D01*
X10468Y80073D01*
X10432Y79964D01*
X10386Y79858D01*
X10342Y79694D01*
X10288Y79533D01*
X10267Y79419D01*
X10237Y79308D01*
X10226Y79194D01*
X10186Y78972D01*
X10172Y78640D01*
X10161Y78523D01*
X10161Y14224D01*
X10177Y13995D01*
X10187Y13764D01*
X10197Y13710D01*
X10201Y13656D01*
X10249Y13430D01*
X10291Y13204D01*
X10308Y13152D01*
X10320Y13098D01*
X10399Y12882D01*
X10472Y12664D01*
X10497Y12615D01*
X10516Y12563D01*
X10624Y12360D01*
X10727Y12155D01*
X10758Y12109D01*
X10784Y12061D01*
X10920Y11875D01*
X11051Y11686D01*
X11088Y11645D01*
X11121Y11601D01*
X11281Y11436D01*
X11437Y11267D01*
X11480Y11232D01*
X11518Y11193D01*
X11700Y11052D01*
X11878Y10906D01*
X11926Y10878D01*
X11969Y10844D01*
X12169Y10730D01*
X12366Y10611D01*
X12416Y10589D01*
X12464Y10562D01*
X12678Y10477D01*
X12889Y10386D01*
X12942Y10372D01*
X12993Y10352D01*
X13218Y10297D01*
X13439Y10237D01*
X13483Y10233D01*
X13547Y10217D01*
X14114Y10162D01*
X14180Y10165D01*
X14224Y10161D01*
X635508Y10161D01*
X635737Y10177D01*
G37*
G36*
X405464Y177305D02*
X405464Y177305D01*
X405637Y177307D01*
X405748Y177325D01*
X405861Y177333D01*
X406030Y177369D01*
X406200Y177395D01*
X406308Y177428D01*
X406418Y177452D01*
X406580Y177511D01*
X406745Y177561D01*
X406847Y177609D01*
X406953Y177648D01*
X407105Y177729D01*
X407262Y177802D01*
X407356Y177863D01*
X407455Y177916D01*
X407595Y178018D01*
X407740Y178112D01*
X407824Y178186D01*
X407915Y178253D01*
X408039Y178373D01*
X408169Y178487D01*
X408243Y178572D01*
X408323Y178650D01*
X408429Y178787D01*
X408542Y178917D01*
X408603Y179012D01*
X408672Y179101D01*
X408758Y179251D01*
X408851Y179396D01*
X408899Y179498D01*
X408954Y179596D01*
X409018Y179756D01*
X409091Y179913D01*
X409123Y180021D01*
X409165Y180125D01*
X409205Y180294D01*
X409255Y180459D01*
X409272Y180570D01*
X409299Y180679D01*
X409316Y180852D01*
X409342Y181022D01*
X409343Y181134D01*
X409354Y181246D01*
X409347Y181419D01*
X409349Y181592D01*
X409334Y181703D01*
X409329Y181816D01*
X409298Y181985D01*
X409276Y182157D01*
X409251Y182239D01*
X409225Y182376D01*
X409050Y182898D01*
X409046Y182911D01*
X406907Y188075D01*
X406907Y190623D01*
X406895Y190796D01*
X406893Y190968D01*
X406875Y191079D01*
X406867Y191192D01*
X406831Y191361D01*
X406805Y191531D01*
X406772Y191639D01*
X406748Y191749D01*
X406689Y191911D01*
X406639Y192076D01*
X406591Y192178D01*
X406552Y192284D01*
X406471Y192436D01*
X406398Y192593D01*
X406337Y192687D01*
X406284Y192786D01*
X406182Y192926D01*
X406088Y193071D01*
X406014Y193155D01*
X405947Y193246D01*
X405827Y193370D01*
X405713Y193500D01*
X405628Y193574D01*
X405550Y193655D01*
X405413Y193760D01*
X405283Y193873D01*
X405188Y193934D01*
X405099Y194003D01*
X404949Y194089D01*
X404804Y194182D01*
X404702Y194230D01*
X404604Y194285D01*
X404443Y194349D01*
X404287Y194422D01*
X404179Y194454D01*
X404075Y194496D01*
X403907Y194536D01*
X403741Y194586D01*
X403630Y194603D01*
X403521Y194630D01*
X403349Y194646D01*
X403178Y194673D01*
X403066Y194674D01*
X402954Y194685D01*
X402781Y194678D01*
X402608Y194680D01*
X402497Y194665D01*
X402384Y194660D01*
X402215Y194629D01*
X402043Y194607D01*
X401961Y194582D01*
X401824Y194556D01*
X401302Y194381D01*
X401289Y194377D01*
X396833Y192531D01*
X390567Y192531D01*
X384779Y194929D01*
X383873Y195835D01*
X383699Y195986D01*
X383530Y196141D01*
X383484Y196172D01*
X383443Y196208D01*
X383250Y196333D01*
X383060Y196464D01*
X383011Y196488D01*
X382965Y196518D01*
X382756Y196615D01*
X382550Y196718D01*
X382498Y196735D01*
X382448Y196758D01*
X382227Y196825D01*
X382009Y196898D01*
X381955Y196907D01*
X381903Y196923D01*
X381675Y196959D01*
X381449Y197000D01*
X381394Y197002D01*
X381340Y197011D01*
X381110Y197014D01*
X380879Y197023D01*
X380825Y197018D01*
X380770Y197018D01*
X380542Y196989D01*
X380312Y196966D01*
X380259Y196953D01*
X380205Y196946D01*
X379982Y196885D01*
X379759Y196831D01*
X379708Y196810D01*
X379655Y196796D01*
X379443Y196704D01*
X379230Y196619D01*
X379182Y196592D01*
X379132Y196570D01*
X378935Y196450D01*
X378736Y196336D01*
X378702Y196307D01*
X378646Y196273D01*
X378205Y195911D01*
X378161Y195863D01*
X378127Y195835D01*
X377221Y194929D01*
X371433Y192531D01*
X365167Y192531D01*
X359379Y194929D01*
X354440Y199868D01*
X354292Y199997D01*
X354149Y200132D01*
X354077Y200183D01*
X354010Y200242D01*
X353845Y200348D01*
X353685Y200462D01*
X353606Y200503D01*
X353532Y200552D01*
X353353Y200634D01*
X353179Y200725D01*
X353095Y200754D01*
X353015Y200791D01*
X352827Y200848D01*
X352642Y200913D01*
X352554Y200931D01*
X352469Y200957D01*
X352275Y200987D01*
X352083Y201025D01*
X351994Y201030D01*
X351906Y201044D01*
X351710Y201047D01*
X351514Y201058D01*
X351425Y201050D01*
X351337Y201052D01*
X351142Y201027D01*
X350946Y201011D01*
X350860Y200991D01*
X350771Y200980D01*
X350582Y200928D01*
X350391Y200884D01*
X350308Y200853D01*
X350222Y200829D01*
X350041Y200751D01*
X349858Y200681D01*
X349798Y200646D01*
X349699Y200603D01*
X349212Y200307D01*
X349193Y200291D01*
X349178Y200282D01*
X348225Y199590D01*
X346963Y198947D01*
X346963Y215900D01*
X346947Y216129D01*
X346937Y216359D01*
X346927Y216413D01*
X346923Y216468D01*
X346875Y216693D01*
X346833Y216919D01*
X346816Y216972D01*
X346804Y217025D01*
X346725Y217241D01*
X346652Y217460D01*
X346627Y217509D01*
X346609Y217560D01*
X346500Y217763D01*
X346397Y217969D01*
X346366Y218014D01*
X346340Y218063D01*
X346204Y218248D01*
X346073Y218438D01*
X346036Y218478D01*
X346003Y218523D01*
X345843Y218687D01*
X345687Y218857D01*
X345686Y218857D01*
X345644Y218892D01*
X345625Y218911D01*
X345605Y218931D01*
X345424Y219072D01*
X345245Y219218D01*
X345198Y219247D01*
X345155Y219280D01*
X344955Y219394D01*
X344758Y219513D01*
X344708Y219535D01*
X344660Y219562D01*
X344445Y219648D01*
X344234Y219738D01*
X344182Y219752D01*
X344130Y219773D01*
X343906Y219827D01*
X343684Y219887D01*
X343640Y219891D01*
X343576Y219907D01*
X343009Y219962D01*
X342944Y219959D01*
X342900Y219963D01*
X332739Y219963D01*
X332739Y224320D01*
X332989Y225899D01*
X333484Y227420D01*
X334237Y228899D01*
X334256Y228943D01*
X334279Y228984D01*
X334367Y229205D01*
X334460Y229424D01*
X334472Y229470D01*
X334489Y229513D01*
X334545Y229745D01*
X334607Y229974D01*
X334612Y230021D01*
X334623Y230067D01*
X334646Y230304D01*
X334675Y230540D01*
X334674Y230587D01*
X334679Y230634D01*
X334668Y230873D01*
X334664Y231110D01*
X334656Y231156D01*
X334654Y231204D01*
X334611Y231438D01*
X334573Y231672D01*
X334559Y231717D01*
X334550Y231764D01*
X334474Y231989D01*
X334404Y232217D01*
X334384Y232259D01*
X334369Y232304D01*
X334262Y232517D01*
X334161Y232732D01*
X334135Y232771D01*
X334114Y232813D01*
X333978Y233009D01*
X333848Y233208D01*
X333817Y233243D01*
X333790Y233282D01*
X333628Y233457D01*
X333471Y233636D01*
X333436Y233666D01*
X333404Y233701D01*
X333219Y233852D01*
X333039Y234007D01*
X332999Y234032D01*
X332962Y234062D01*
X332760Y234185D01*
X332559Y234313D01*
X332515Y234333D01*
X332475Y234357D01*
X332257Y234451D01*
X332040Y234550D01*
X331995Y234563D01*
X331952Y234582D01*
X331722Y234644D01*
X331494Y234711D01*
X331447Y234718D01*
X331402Y234731D01*
X331292Y234741D01*
X330930Y234795D01*
X330726Y234797D01*
X330617Y234807D01*
X276592Y234807D01*
X276363Y234791D01*
X276132Y234781D01*
X276078Y234771D01*
X276024Y234767D01*
X275798Y234719D01*
X275572Y234677D01*
X275520Y234660D01*
X275466Y234648D01*
X275250Y234569D01*
X275032Y234496D01*
X274983Y234471D01*
X274931Y234452D01*
X274728Y234344D01*
X274523Y234241D01*
X274477Y234210D01*
X274429Y234184D01*
X274243Y234048D01*
X274054Y233917D01*
X274013Y233880D01*
X273969Y233847D01*
X273804Y233687D01*
X273635Y233531D01*
X273600Y233488D01*
X273561Y233450D01*
X273420Y233268D01*
X273274Y233090D01*
X273246Y233042D01*
X273212Y232999D01*
X273098Y232799D01*
X272979Y232602D01*
X272957Y232552D01*
X272930Y232504D01*
X272845Y232290D01*
X272754Y232079D01*
X272740Y232026D01*
X272720Y231975D01*
X272665Y231750D01*
X272605Y231529D01*
X272601Y231485D01*
X272585Y231421D01*
X272530Y230854D01*
X272533Y230788D01*
X272529Y230744D01*
X272529Y220383D01*
X271771Y218555D01*
X271752Y218498D01*
X271727Y218443D01*
X271662Y218228D01*
X271591Y218015D01*
X271580Y217955D01*
X271562Y217897D01*
X271528Y217675D01*
X271488Y217454D01*
X271485Y217394D01*
X271476Y217334D01*
X271473Y217109D01*
X271464Y216885D01*
X271470Y216825D01*
X271469Y216764D01*
X271498Y216542D01*
X271520Y216318D01*
X271534Y216259D01*
X271542Y216199D01*
X271576Y216087D01*
X271655Y215764D01*
X271738Y215555D01*
X271771Y215445D01*
X272529Y213617D01*
X272529Y200383D01*
X271771Y198555D01*
X271752Y198498D01*
X271727Y198443D01*
X271691Y198323D01*
X271682Y198301D01*
X271674Y198266D01*
X271662Y198228D01*
X271591Y198015D01*
X271580Y197955D01*
X271562Y197897D01*
X271528Y197675D01*
X271488Y197454D01*
X271485Y197394D01*
X271476Y197334D01*
X271473Y197109D01*
X271464Y196885D01*
X271470Y196825D01*
X271469Y196764D01*
X271498Y196542D01*
X271520Y196318D01*
X271534Y196259D01*
X271542Y196199D01*
X271576Y196087D01*
X271655Y195764D01*
X271738Y195555D01*
X271771Y195445D01*
X272529Y193617D01*
X272529Y183256D01*
X272545Y183027D01*
X272555Y182796D01*
X272565Y182742D01*
X272569Y182688D01*
X272617Y182462D01*
X272659Y182236D01*
X272676Y182184D01*
X272688Y182130D01*
X272767Y181914D01*
X272840Y181696D01*
X272865Y181647D01*
X272884Y181595D01*
X272992Y181392D01*
X273095Y181187D01*
X273126Y181141D01*
X273152Y181093D01*
X273288Y180907D01*
X273419Y180718D01*
X273456Y180677D01*
X273489Y180633D01*
X273649Y180468D01*
X273805Y180299D01*
X273848Y180264D01*
X273886Y180225D01*
X274068Y180084D01*
X274246Y179938D01*
X274294Y179910D01*
X274337Y179876D01*
X274537Y179762D01*
X274734Y179643D01*
X274784Y179621D01*
X274832Y179594D01*
X275046Y179509D01*
X275257Y179418D01*
X275310Y179404D01*
X275361Y179384D01*
X275586Y179329D01*
X275807Y179269D01*
X275851Y179265D01*
X275915Y179249D01*
X276482Y179194D01*
X276548Y179197D01*
X276592Y179193D01*
X281714Y179193D01*
X281774Y179197D01*
X281835Y179195D01*
X282058Y179217D01*
X282282Y179233D01*
X282342Y179245D01*
X282402Y179251D01*
X282620Y179305D01*
X282840Y179352D01*
X282896Y179373D01*
X282955Y179387D01*
X283164Y179470D01*
X283375Y179548D01*
X283428Y179576D01*
X283484Y179599D01*
X283679Y179710D01*
X283877Y179816D01*
X283926Y179852D01*
X283978Y179882D01*
X284025Y179921D01*
X287183Y181229D01*
X303446Y181229D01*
X303572Y181191D01*
X303785Y181119D01*
X303845Y181108D01*
X303903Y181091D01*
X304125Y181057D01*
X304346Y181016D01*
X304406Y181014D01*
X304466Y181004D01*
X304691Y181002D01*
X304915Y180992D01*
X304975Y180998D01*
X305036Y180997D01*
X305258Y181026D01*
X305482Y181048D01*
X305541Y181063D01*
X305601Y181070D01*
X305713Y181105D01*
X306036Y181183D01*
X306150Y181229D01*
X322417Y181229D01*
X325404Y179991D01*
X326913Y178483D01*
X326958Y178443D01*
X326999Y178399D01*
X327173Y178256D01*
X327343Y178109D01*
X327394Y178076D01*
X327440Y178038D01*
X327633Y177922D01*
X327821Y177799D01*
X327876Y177774D01*
X327928Y177743D01*
X328134Y177654D01*
X328338Y177559D01*
X328396Y177542D01*
X328451Y177518D01*
X328668Y177460D01*
X328883Y177394D01*
X328943Y177385D01*
X329001Y177369D01*
X329118Y177358D01*
X329446Y177307D01*
X329671Y177304D01*
X329786Y177293D01*
X405292Y177293D01*
X405464Y177305D01*
G37*
G36*
X34478Y97380D02*
X34478Y97380D01*
X34648Y97378D01*
X34762Y97392D01*
X34878Y97397D01*
X35045Y97428D01*
X35213Y97450D01*
X35325Y97480D01*
X35438Y97501D01*
X35599Y97555D01*
X35763Y97600D01*
X35869Y97646D01*
X35978Y97683D01*
X36130Y97759D01*
X36286Y97826D01*
X36384Y97886D01*
X36487Y97938D01*
X36627Y98034D01*
X36772Y98123D01*
X36861Y98196D01*
X36956Y98262D01*
X37081Y98377D01*
X37213Y98485D01*
X37290Y98570D01*
X37375Y98648D01*
X37483Y98780D01*
X37598Y98905D01*
X37663Y99000D01*
X37736Y99089D01*
X37824Y99234D01*
X37920Y99374D01*
X37972Y99478D01*
X38031Y99576D01*
X38098Y99732D01*
X38174Y99885D01*
X38210Y99994D01*
X38256Y100100D01*
X38300Y100264D01*
X38354Y100425D01*
X38375Y100539D01*
X38405Y100650D01*
X38416Y100765D01*
X38456Y100986D01*
X38470Y101317D01*
X38481Y101435D01*
X38481Y114216D01*
X38519Y114342D01*
X38591Y114555D01*
X38602Y114615D01*
X38619Y114673D01*
X38653Y114895D01*
X38694Y115116D01*
X38696Y115176D01*
X38706Y115236D01*
X38708Y115461D01*
X38718Y115685D01*
X38712Y115745D01*
X38713Y115806D01*
X38684Y116028D01*
X38662Y116252D01*
X38647Y116311D01*
X38640Y116371D01*
X38605Y116483D01*
X38527Y116806D01*
X38481Y116920D01*
X38481Y133187D01*
X39719Y136175D01*
X42005Y138461D01*
X44993Y139699D01*
X63208Y139699D01*
X63437Y139715D01*
X63668Y139725D01*
X63722Y139735D01*
X63776Y139739D01*
X64002Y139787D01*
X64228Y139829D01*
X64280Y139846D01*
X64334Y139858D01*
X64550Y139937D01*
X64768Y140010D01*
X64817Y140035D01*
X64869Y140054D01*
X65072Y140162D01*
X65277Y140265D01*
X65323Y140296D01*
X65371Y140322D01*
X65557Y140458D01*
X65746Y140589D01*
X65787Y140626D01*
X65831Y140659D01*
X65996Y140819D01*
X66165Y140975D01*
X66200Y141018D01*
X66239Y141056D01*
X66380Y141238D01*
X66526Y141416D01*
X66554Y141464D01*
X66588Y141507D01*
X66702Y141707D01*
X66821Y141904D01*
X66843Y141954D01*
X66870Y142002D01*
X66955Y142216D01*
X67046Y142427D01*
X67060Y142480D01*
X67080Y142531D01*
X67135Y142756D01*
X67195Y142977D01*
X67199Y143021D01*
X67215Y143085D01*
X67270Y143652D01*
X67267Y143718D01*
X67271Y143762D01*
X67271Y153617D01*
X68029Y155445D01*
X68048Y155502D01*
X68073Y155557D01*
X68138Y155772D01*
X68209Y155985D01*
X68220Y156045D01*
X68238Y156103D01*
X68272Y156325D01*
X68312Y156546D01*
X68315Y156606D01*
X68324Y156666D01*
X68327Y156891D01*
X68336Y157115D01*
X68330Y157175D01*
X68331Y157236D01*
X68302Y157458D01*
X68280Y157682D01*
X68266Y157741D01*
X68258Y157801D01*
X68224Y157913D01*
X68145Y158236D01*
X68062Y158445D01*
X68029Y158555D01*
X67271Y160383D01*
X67271Y172310D01*
X67263Y172425D01*
X67265Y172540D01*
X67243Y172709D01*
X67231Y172878D01*
X67207Y172991D01*
X67193Y173105D01*
X67148Y173270D01*
X67112Y173436D01*
X67073Y173544D01*
X67042Y173655D01*
X66975Y173811D01*
X66916Y173971D01*
X66862Y174072D01*
X66816Y174178D01*
X66728Y174323D01*
X66648Y174473D01*
X66580Y174566D01*
X66520Y174665D01*
X66412Y174796D01*
X66311Y174933D01*
X66231Y175016D01*
X66158Y175105D01*
X66032Y175220D01*
X65914Y175341D01*
X65823Y175412D01*
X65738Y175490D01*
X65597Y175586D01*
X65463Y175690D01*
X65363Y175747D01*
X65268Y175812D01*
X65116Y175888D01*
X64968Y175972D01*
X64861Y176015D01*
X64758Y176066D01*
X64597Y176120D01*
X64439Y176182D01*
X64326Y176210D01*
X64217Y176246D01*
X64050Y176276D01*
X63885Y176317D01*
X63770Y176328D01*
X63657Y176348D01*
X63487Y176355D01*
X63318Y176372D01*
X63203Y176367D01*
X63087Y176372D01*
X62918Y176355D01*
X62748Y176347D01*
X62635Y176326D01*
X62520Y176315D01*
X62355Y176274D01*
X62188Y176243D01*
X62079Y176207D01*
X61967Y176179D01*
X61809Y176116D01*
X61648Y176062D01*
X61545Y176010D01*
X61438Y175968D01*
X61291Y175883D01*
X61139Y175807D01*
X61044Y175741D01*
X60944Y175684D01*
X60855Y175611D01*
X60670Y175483D01*
X60426Y175258D01*
X60335Y175183D01*
X57958Y172806D01*
X52490Y170541D01*
X46570Y170541D01*
X41102Y172806D01*
X36916Y176992D01*
X34651Y182460D01*
X34651Y188380D01*
X36068Y191801D01*
X36087Y191858D01*
X36113Y191913D01*
X36178Y192127D01*
X36249Y192341D01*
X36260Y192400D01*
X36277Y192458D01*
X36311Y192680D01*
X36352Y192901D01*
X36355Y192962D01*
X36364Y193021D01*
X36367Y193246D01*
X36376Y193471D01*
X36370Y193531D01*
X36371Y193591D01*
X36342Y193813D01*
X36320Y194038D01*
X36306Y194096D01*
X36298Y194156D01*
X36264Y194269D01*
X36185Y194591D01*
X36102Y194800D01*
X36068Y194910D01*
X34671Y198283D01*
X34671Y214546D01*
X34709Y214672D01*
X34781Y214885D01*
X34792Y214945D01*
X34809Y215003D01*
X34843Y215225D01*
X34884Y215446D01*
X34886Y215506D01*
X34896Y215566D01*
X34898Y215790D01*
X34908Y216015D01*
X34902Y216075D01*
X34903Y216136D01*
X34874Y216358D01*
X34852Y216582D01*
X34837Y216641D01*
X34830Y216701D01*
X34795Y216813D01*
X34717Y217136D01*
X34671Y217250D01*
X34671Y233527D01*
X34730Y233722D01*
X34801Y233935D01*
X34812Y233995D01*
X34830Y234053D01*
X34864Y234275D01*
X34905Y234496D01*
X34907Y234556D01*
X34916Y234616D01*
X34919Y234840D01*
X34928Y235065D01*
X34923Y235125D01*
X34923Y235186D01*
X34895Y235408D01*
X34872Y235632D01*
X34858Y235691D01*
X34850Y235751D01*
X34816Y235864D01*
X34738Y236186D01*
X34671Y236352D01*
X34671Y252617D01*
X35909Y255605D01*
X38275Y257971D01*
X38503Y258129D01*
X38730Y258285D01*
X38732Y258287D01*
X38734Y258288D01*
X38948Y258485D01*
X39149Y258670D01*
X39151Y258673D01*
X39153Y258674D01*
X39331Y258892D01*
X39511Y259111D01*
X39512Y259113D01*
X39514Y259115D01*
X39666Y259365D01*
X39709Y259437D01*
X50800Y259437D01*
X51029Y259453D01*
X51259Y259463D01*
X51313Y259473D01*
X51368Y259477D01*
X51593Y259525D01*
X51819Y259567D01*
X51872Y259584D01*
X51925Y259596D01*
X52141Y259675D01*
X52360Y259748D01*
X52409Y259773D01*
X52460Y259791D01*
X52663Y259900D01*
X52869Y260003D01*
X52914Y260034D01*
X52963Y260060D01*
X53148Y260196D01*
X53338Y260327D01*
X53378Y260364D01*
X53423Y260397D01*
X53587Y260557D01*
X53757Y260713D01*
X53792Y260756D01*
X53831Y260794D01*
X53972Y260976D01*
X54118Y261154D01*
X54146Y261201D01*
X54180Y261245D01*
X54294Y261445D01*
X54413Y261641D01*
X54435Y261692D01*
X54462Y261740D01*
X54547Y261954D01*
X54637Y262165D01*
X54652Y262218D01*
X54672Y262269D01*
X54726Y262494D01*
X54786Y262715D01*
X54791Y262759D01*
X54806Y262823D01*
X54861Y263390D01*
X54859Y263456D01*
X54863Y263500D01*
X54847Y263730D01*
X54837Y263960D01*
X54827Y264014D01*
X54823Y264069D01*
X54775Y264294D01*
X54733Y264520D01*
X54715Y264572D01*
X54704Y264626D01*
X54625Y264842D01*
X54552Y265060D01*
X54527Y265109D01*
X54508Y265161D01*
X54399Y265364D01*
X54296Y265570D01*
X54265Y265615D01*
X54239Y265663D01*
X54104Y265848D01*
X53973Y266038D01*
X53935Y266079D01*
X53903Y266123D01*
X53743Y266288D01*
X53586Y266457D01*
X53544Y266492D01*
X53505Y266531D01*
X53324Y266672D01*
X53145Y266818D01*
X53098Y266847D01*
X53055Y266880D01*
X52855Y266994D01*
X52658Y267113D01*
X52608Y267135D01*
X52560Y267162D01*
X52345Y267248D01*
X52134Y267338D01*
X52082Y267352D01*
X52030Y267373D01*
X51806Y267427D01*
X51584Y267487D01*
X51540Y267491D01*
X51476Y267507D01*
X50909Y267562D01*
X50844Y267559D01*
X50800Y267563D01*
X40259Y267563D01*
X40259Y268643D01*
X40251Y268759D01*
X40253Y268874D01*
X40231Y269042D01*
X40219Y269212D01*
X40195Y269324D01*
X40181Y269439D01*
X40136Y269603D01*
X40100Y269769D01*
X40061Y269877D01*
X40030Y269988D01*
X39963Y270144D01*
X39904Y270304D01*
X39850Y270406D01*
X39804Y270512D01*
X39716Y270657D01*
X39636Y270807D01*
X39568Y270900D01*
X39508Y270998D01*
X39400Y271129D01*
X39299Y271266D01*
X39219Y271349D01*
X39146Y271438D01*
X39020Y271553D01*
X38902Y271675D01*
X38811Y271745D01*
X38726Y271823D01*
X38586Y271919D01*
X38451Y272023D01*
X38351Y272080D01*
X38256Y272146D01*
X38104Y272221D01*
X37956Y272306D01*
X37849Y272348D01*
X37746Y272399D01*
X37585Y272453D01*
X37427Y272516D01*
X37314Y272543D01*
X37205Y272579D01*
X37038Y272610D01*
X36873Y272650D01*
X36758Y272661D01*
X36645Y272682D01*
X36475Y272689D01*
X36306Y272705D01*
X36191Y272700D01*
X36075Y272705D01*
X35906Y272688D01*
X35736Y272681D01*
X35623Y272660D01*
X35509Y272648D01*
X35343Y272608D01*
X35176Y272577D01*
X35067Y272540D01*
X34955Y272513D01*
X34797Y272449D01*
X34636Y272395D01*
X34533Y272344D01*
X34426Y272301D01*
X34279Y272216D01*
X34127Y272140D01*
X34032Y272075D01*
X33932Y272017D01*
X33843Y271944D01*
X33658Y271816D01*
X33414Y271591D01*
X33323Y271517D01*
X27607Y265801D01*
X27567Y265755D01*
X27523Y265714D01*
X27380Y265540D01*
X27233Y265370D01*
X27200Y265320D01*
X27162Y265273D01*
X27045Y265080D01*
X26923Y264892D01*
X26898Y264837D01*
X26867Y264786D01*
X26778Y264579D01*
X26683Y264375D01*
X26666Y264318D01*
X26642Y264262D01*
X26583Y264045D01*
X26518Y263830D01*
X26509Y263770D01*
X26493Y263712D01*
X26482Y263595D01*
X26431Y263267D01*
X26428Y263042D01*
X26417Y262927D01*
X26417Y105373D01*
X26421Y105312D01*
X26419Y105252D01*
X26441Y105029D01*
X26457Y104804D01*
X26469Y104745D01*
X26475Y104685D01*
X26529Y104467D01*
X26576Y104247D01*
X26596Y104190D01*
X26611Y104132D01*
X26694Y103923D01*
X26772Y103712D01*
X26800Y103659D01*
X26822Y103603D01*
X26934Y103408D01*
X27040Y103210D01*
X27076Y103161D01*
X27106Y103108D01*
X27181Y103017D01*
X27377Y102750D01*
X27534Y102588D01*
X27607Y102499D01*
X31545Y98561D01*
X31632Y98486D01*
X31712Y98403D01*
X31847Y98299D01*
X31975Y98188D01*
X32072Y98125D01*
X32163Y98055D01*
X32310Y97970D01*
X32453Y97878D01*
X32558Y97829D01*
X32658Y97772D01*
X32816Y97710D01*
X32970Y97638D01*
X33080Y97605D01*
X33187Y97562D01*
X33353Y97522D01*
X33515Y97473D01*
X33629Y97455D01*
X33741Y97428D01*
X33911Y97412D01*
X34078Y97386D01*
X34193Y97384D01*
X34308Y97373D01*
X34478Y97380D01*
G37*
%LPC*%
G36*
X664459Y196027D02*
X664459Y196027D01*
X664459Y217150D01*
X664557Y217641D01*
X664748Y218103D01*
X665027Y218520D01*
X665380Y218873D01*
X665797Y219152D01*
X666259Y219343D01*
X666750Y219441D01*
X690873Y219441D01*
X690873Y196027D01*
X664459Y196027D01*
G37*
%LPD*%
%LPC*%
G36*
X707127Y156359D02*
X707127Y156359D01*
X707127Y179773D01*
X733541Y179773D01*
X733541Y158650D01*
X733443Y158159D01*
X733252Y157697D01*
X732973Y157280D01*
X732620Y156927D01*
X732203Y156648D01*
X731741Y156457D01*
X731250Y156359D01*
X707127Y156359D01*
G37*
%LPD*%
%LPC*%
G36*
X666750Y156359D02*
X666750Y156359D01*
X666259Y156457D01*
X665797Y156648D01*
X665380Y156927D01*
X665027Y157280D01*
X664748Y157697D01*
X664557Y158159D01*
X664459Y158650D01*
X664459Y179773D01*
X690873Y179773D01*
X690873Y156359D01*
X666750Y156359D01*
G37*
%LPD*%
G36*
X345530Y53353D02*
X345530Y53353D01*
X345760Y53363D01*
X345814Y53373D01*
X345869Y53377D01*
X346094Y53425D01*
X346320Y53467D01*
X346372Y53485D01*
X346426Y53496D01*
X346642Y53575D01*
X346860Y53648D01*
X346909Y53673D01*
X346961Y53692D01*
X347164Y53801D01*
X347370Y53904D01*
X347415Y53935D01*
X347463Y53961D01*
X347649Y54096D01*
X347838Y54227D01*
X347879Y54265D01*
X347923Y54297D01*
X348088Y54457D01*
X348257Y54614D01*
X348292Y54656D01*
X348331Y54695D01*
X348472Y54876D01*
X348618Y55055D01*
X348647Y55102D01*
X348680Y55145D01*
X348794Y55345D01*
X348913Y55542D01*
X348935Y55592D01*
X348962Y55640D01*
X349048Y55855D01*
X349138Y56066D01*
X349152Y56118D01*
X349173Y56170D01*
X349227Y56394D01*
X349287Y56616D01*
X349291Y56660D01*
X349307Y56724D01*
X349362Y57291D01*
X349359Y57356D01*
X349363Y57400D01*
X349363Y70391D01*
X349375Y70396D01*
X349520Y70484D01*
X349670Y70564D01*
X349763Y70632D01*
X349861Y70692D01*
X349992Y70800D01*
X350130Y70901D01*
X350212Y70981D01*
X350301Y71054D01*
X350416Y71179D01*
X350538Y71298D01*
X350608Y71389D01*
X350686Y71474D01*
X350783Y71614D01*
X350887Y71749D01*
X350944Y71849D01*
X351009Y71944D01*
X351084Y72096D01*
X351169Y72244D01*
X351211Y72351D01*
X351263Y72454D01*
X351316Y72615D01*
X351379Y72773D01*
X351406Y72886D01*
X351442Y72995D01*
X351473Y73162D01*
X351513Y73327D01*
X351524Y73442D01*
X351545Y73555D01*
X351552Y73725D01*
X351568Y73894D01*
X351563Y74009D01*
X351568Y74125D01*
X351551Y74294D01*
X351544Y74464D01*
X351523Y74577D01*
X351511Y74691D01*
X351471Y74857D01*
X351440Y75024D01*
X351403Y75133D01*
X351376Y75245D01*
X351313Y75403D01*
X351258Y75564D01*
X351207Y75667D01*
X351164Y75774D01*
X351079Y75921D01*
X351003Y76073D01*
X350938Y76168D01*
X350881Y76268D01*
X350807Y76357D01*
X350679Y76542D01*
X350455Y76786D01*
X350380Y76877D01*
X342240Y85017D01*
X342194Y85057D01*
X342153Y85101D01*
X341979Y85243D01*
X341810Y85391D01*
X341759Y85424D01*
X341712Y85462D01*
X341520Y85579D01*
X341331Y85701D01*
X341277Y85726D01*
X341225Y85757D01*
X341018Y85846D01*
X340814Y85941D01*
X340757Y85958D01*
X340701Y85982D01*
X340484Y86041D01*
X340269Y86106D01*
X340210Y86115D01*
X340151Y86131D01*
X340034Y86142D01*
X339706Y86193D01*
X339481Y86196D01*
X339367Y86207D01*
X332486Y86207D01*
X332426Y86203D01*
X332366Y86205D01*
X332142Y86183D01*
X331918Y86167D01*
X331859Y86155D01*
X331799Y86149D01*
X331580Y86095D01*
X331360Y86048D01*
X331304Y86028D01*
X331245Y86013D01*
X331036Y85930D01*
X330825Y85852D01*
X330772Y85824D01*
X330716Y85802D01*
X330521Y85690D01*
X330323Y85584D01*
X330274Y85548D01*
X330222Y85518D01*
X330131Y85443D01*
X329863Y85247D01*
X329702Y85090D01*
X329613Y85017D01*
X329525Y84929D01*
X329289Y84766D01*
X329070Y84615D01*
X329068Y84613D01*
X329066Y84612D01*
X328852Y84415D01*
X328651Y84230D01*
X328649Y84227D01*
X328647Y84226D01*
X328462Y84000D01*
X328289Y83789D01*
X328288Y83787D01*
X328286Y83785D01*
X328129Y83525D01*
X328091Y83463D01*
X317500Y83463D01*
X317271Y83447D01*
X317041Y83437D01*
X316987Y83427D01*
X316932Y83423D01*
X316707Y83375D01*
X316481Y83333D01*
X316428Y83316D01*
X316375Y83304D01*
X316159Y83225D01*
X315940Y83152D01*
X315891Y83127D01*
X315840Y83109D01*
X315637Y83000D01*
X315431Y82897D01*
X315386Y82866D01*
X315337Y82840D01*
X315152Y82704D01*
X314962Y82573D01*
X314922Y82536D01*
X314877Y82503D01*
X314713Y82343D01*
X314543Y82187D01*
X314508Y82144D01*
X314469Y82106D01*
X314328Y81924D01*
X314182Y81746D01*
X314154Y81699D01*
X314120Y81655D01*
X314006Y81455D01*
X313887Y81259D01*
X313865Y81208D01*
X313838Y81160D01*
X313753Y80946D01*
X313663Y80735D01*
X313648Y80682D01*
X313628Y80631D01*
X313574Y80406D01*
X313514Y80185D01*
X313509Y80141D01*
X313494Y80077D01*
X313439Y79510D01*
X313441Y79463D01*
X313441Y79444D01*
X313437Y79400D01*
X313453Y79170D01*
X313463Y78940D01*
X313473Y78886D01*
X313477Y78831D01*
X313525Y78606D01*
X313567Y78380D01*
X313585Y78328D01*
X313596Y78274D01*
X313675Y78058D01*
X313748Y77840D01*
X313773Y77791D01*
X313792Y77739D01*
X313901Y77536D01*
X314004Y77330D01*
X314035Y77285D01*
X314061Y77237D01*
X314196Y77051D01*
X314327Y76862D01*
X314365Y76821D01*
X314397Y76777D01*
X314557Y76612D01*
X314714Y76443D01*
X314756Y76408D01*
X314795Y76369D01*
X314976Y76228D01*
X315155Y76082D01*
X315202Y76053D01*
X315245Y76020D01*
X315445Y75906D01*
X315642Y75786D01*
X315692Y75765D01*
X315740Y75738D01*
X315955Y75652D01*
X316166Y75562D01*
X316218Y75548D01*
X316270Y75527D01*
X316494Y75473D01*
X316716Y75413D01*
X316760Y75409D01*
X316824Y75393D01*
X317391Y75338D01*
X317456Y75341D01*
X317500Y75337D01*
X327541Y75337D01*
X327541Y72388D01*
X327541Y72385D01*
X327541Y72383D01*
X327561Y72104D01*
X327581Y71820D01*
X327581Y71817D01*
X327581Y71814D01*
X327645Y71517D01*
X327700Y71263D01*
X327701Y71260D01*
X327701Y71257D01*
X327804Y70977D01*
X327896Y70727D01*
X327897Y70725D01*
X327898Y70722D01*
X328031Y70475D01*
X328164Y70225D01*
X328166Y70223D01*
X328167Y70220D01*
X328337Y69989D01*
X328501Y69765D01*
X328503Y69763D01*
X328504Y69761D01*
X328699Y69561D01*
X328898Y69357D01*
X328900Y69355D01*
X328902Y69353D01*
X329124Y69182D01*
X329349Y69008D01*
X329351Y69007D01*
X329353Y69005D01*
X329365Y68999D01*
X329844Y68726D01*
X329974Y68674D01*
X330049Y68634D01*
X330157Y68589D01*
X330232Y68521D01*
X330277Y68490D01*
X330318Y68454D01*
X330512Y68329D01*
X330701Y68198D01*
X330750Y68174D01*
X330797Y68144D01*
X331005Y68047D01*
X331211Y67945D01*
X331264Y67927D01*
X331313Y67904D01*
X331534Y67838D01*
X331752Y67765D01*
X331806Y67755D01*
X331859Y67739D01*
X332086Y67704D01*
X332313Y67662D01*
X332368Y67660D01*
X332422Y67652D01*
X332651Y67649D01*
X332882Y67639D01*
X332937Y67645D01*
X332991Y67644D01*
X333220Y67673D01*
X333449Y67696D01*
X333502Y67709D01*
X333557Y67716D01*
X333779Y67777D01*
X334002Y67832D01*
X334053Y67852D01*
X334106Y67867D01*
X334318Y67958D01*
X334531Y68043D01*
X334579Y68071D01*
X334629Y68092D01*
X334826Y68212D01*
X335026Y68327D01*
X335060Y68355D01*
X335116Y68389D01*
X335556Y68751D01*
X335600Y68799D01*
X335635Y68828D01*
X336180Y69374D01*
X336597Y69652D01*
X337059Y69843D01*
X337550Y69941D01*
X341237Y69941D01*
X341237Y57400D01*
X341253Y57171D01*
X341263Y56941D01*
X341273Y56887D01*
X341277Y56832D01*
X341325Y56607D01*
X341367Y56381D01*
X341384Y56328D01*
X341396Y56275D01*
X341475Y56059D01*
X341548Y55840D01*
X341573Y55791D01*
X341591Y55740D01*
X341700Y55537D01*
X341803Y55331D01*
X341834Y55286D01*
X341860Y55237D01*
X341996Y55052D01*
X342127Y54862D01*
X342164Y54822D01*
X342197Y54777D01*
X342357Y54613D01*
X342513Y54443D01*
X342556Y54408D01*
X342594Y54369D01*
X342776Y54228D01*
X342954Y54082D01*
X343001Y54054D01*
X343045Y54020D01*
X343245Y53906D01*
X343441Y53787D01*
X343492Y53765D01*
X343540Y53738D01*
X343754Y53653D01*
X343965Y53563D01*
X344018Y53548D01*
X344069Y53528D01*
X344294Y53474D01*
X344515Y53414D01*
X344559Y53409D01*
X344623Y53394D01*
X345190Y53339D01*
X345256Y53341D01*
X345300Y53337D01*
X345530Y53353D01*
G37*
%LPC*%
G36*
X703749Y81449D02*
X703749Y81449D01*
X703749Y97791D01*
X707443Y97791D01*
X720091Y85143D01*
X720091Y81449D01*
X703749Y81449D01*
G37*
%LPD*%
%LPC*%
G36*
X676909Y81449D02*
X676909Y81449D01*
X676909Y85143D01*
X689557Y97791D01*
X693251Y97791D01*
X693251Y81449D01*
X676909Y81449D01*
G37*
%LPD*%
%LPC*%
G36*
X703749Y54609D02*
X703749Y54609D01*
X703749Y70951D01*
X720091Y70951D01*
X720091Y67257D01*
X707443Y54609D01*
X703749Y54609D01*
G37*
%LPD*%
%LPC*%
G36*
X689557Y54609D02*
X689557Y54609D01*
X676909Y67257D01*
X676909Y70951D01*
X693251Y70951D01*
X693251Y54609D01*
X689557Y54609D01*
G37*
%LPD*%
%LPC*%
G36*
X588263Y156463D02*
X588263Y156463D01*
X588263Y169353D01*
X589525Y168710D01*
X590819Y167770D01*
X591950Y166639D01*
X592890Y165345D01*
X593616Y163920D01*
X594111Y162399D01*
X594361Y160820D01*
X594361Y156463D01*
X588263Y156463D01*
G37*
%LPD*%
%LPC*%
G36*
X588263Y148337D02*
X588263Y148337D01*
X594361Y148337D01*
X594361Y143980D01*
X594111Y142401D01*
X593616Y140880D01*
X592890Y139455D01*
X591950Y138161D01*
X590819Y137030D01*
X589525Y136090D01*
X588263Y135447D01*
X588263Y148337D01*
G37*
%LPD*%
%LPC*%
G36*
X337575Y199590D02*
X337575Y199590D01*
X336281Y200530D01*
X335150Y201661D01*
X334210Y202955D01*
X333484Y204380D01*
X332989Y205901D01*
X332739Y207480D01*
X332739Y211837D01*
X338837Y211837D01*
X338837Y198947D01*
X337575Y199590D01*
G37*
%LPD*%
%LPC*%
G36*
X198549Y52459D02*
X198549Y52459D01*
X198549Y59251D01*
X207841Y59251D01*
X207841Y54750D01*
X207743Y54259D01*
X207552Y53797D01*
X207273Y53380D01*
X206920Y53027D01*
X206503Y52748D01*
X206041Y52557D01*
X205550Y52459D01*
X198549Y52459D01*
G37*
%LPD*%
%LPC*%
G36*
X152849Y52459D02*
X152849Y52459D01*
X152849Y59251D01*
X162141Y59251D01*
X162141Y54750D01*
X162043Y54259D01*
X161852Y53797D01*
X161573Y53380D01*
X161220Y53027D01*
X160803Y52748D01*
X160341Y52557D01*
X159850Y52459D01*
X152849Y52459D01*
G37*
%LPD*%
%LPC*%
G36*
X137350Y52459D02*
X137350Y52459D01*
X136859Y52557D01*
X136397Y52748D01*
X135980Y53027D01*
X135627Y53380D01*
X135348Y53797D01*
X135157Y54259D01*
X135059Y54750D01*
X135059Y59251D01*
X144351Y59251D01*
X144351Y52459D01*
X137350Y52459D01*
G37*
%LPD*%
%LPC*%
G36*
X183050Y52459D02*
X183050Y52459D01*
X182559Y52557D01*
X182097Y52748D01*
X181680Y53027D01*
X181327Y53380D01*
X181048Y53797D01*
X180857Y54259D01*
X180759Y54750D01*
X180759Y59251D01*
X190051Y59251D01*
X190051Y52459D01*
X183050Y52459D01*
G37*
%LPD*%
%LPC*%
G36*
X255963Y122937D02*
X255963Y122937D01*
X266941Y122937D01*
X266941Y121750D01*
X266843Y121259D01*
X266652Y120797D01*
X266373Y120380D01*
X266020Y120027D01*
X265603Y119748D01*
X265141Y119557D01*
X264650Y119459D01*
X255963Y119459D01*
X255963Y122937D01*
G37*
%LPD*%
%LPC*%
G36*
X766063Y254863D02*
X766063Y254863D01*
X766063Y259841D01*
X769750Y259841D01*
X770241Y259743D01*
X770703Y259552D01*
X771120Y259273D01*
X771473Y258920D01*
X771752Y258503D01*
X771943Y258041D01*
X772041Y257550D01*
X772041Y254863D01*
X766063Y254863D01*
G37*
%LPD*%
%LPC*%
G36*
X751959Y254863D02*
X751959Y254863D01*
X751959Y257550D01*
X752057Y258041D01*
X752248Y258503D01*
X752527Y258920D01*
X752880Y259273D01*
X753297Y259552D01*
X753759Y259743D01*
X754250Y259841D01*
X757937Y259841D01*
X757937Y254863D01*
X751959Y254863D01*
G37*
%LPD*%
%LPC*%
G36*
X766063Y108459D02*
X766063Y108459D01*
X766063Y113437D01*
X772041Y113437D01*
X772041Y110750D01*
X771943Y110259D01*
X771752Y109797D01*
X771473Y109380D01*
X771120Y109027D01*
X770703Y108748D01*
X770241Y108557D01*
X769750Y108459D01*
X766063Y108459D01*
G37*
%LPD*%
%LPC*%
G36*
X698999Y187899D02*
X698999Y187899D01*
X698999Y187901D01*
X699001Y187901D01*
X699001Y187899D01*
X698999Y187899D01*
G37*
%LPD*%
D10*
X0Y0D02*
X800000Y0D01*
X800000Y350000D01*
X0Y350000D01*
X0Y0D01*
D11*
X288300Y63500D03*
X194300Y63500D03*
X148600Y63500D03*
X54600Y63500D03*
D12*
X762000Y136500D03*
X762000Y117500D03*
X762000Y231800D03*
X762000Y250800D03*
X317500Y98400D03*
X317500Y79400D03*
D13*
X54610Y106070D03*
X54610Y125070D03*
X317500Y55220D03*
X317500Y36220D03*
D14*
X87900Y267000D03*
X87900Y247000D03*
X87900Y227000D03*
X87900Y207000D03*
X87900Y187000D03*
X87900Y167000D03*
X87900Y147000D03*
X87900Y127000D03*
X251900Y127000D03*
X251900Y147000D03*
X251900Y167000D03*
X251900Y187000D03*
X251900Y207000D03*
X251900Y227000D03*
X251900Y247000D03*
X251900Y267000D03*
D15*
X118900Y110000D03*
X138900Y110000D03*
X158900Y110000D03*
X178900Y110000D03*
X198900Y110000D03*
X218900Y110000D03*
D16*
X345300Y57400D03*
X368300Y57400D03*
X391300Y57400D03*
D17*
X368300Y120400D03*
D18*
X635000Y76200D03*
X698500Y76200D03*
X666750Y25400D03*
D19*
X342900Y208280D02*
X342900Y223520D01*
X368300Y223520D02*
X368300Y208280D01*
X393700Y208280D02*
X393700Y223520D01*
X419100Y223520D02*
X419100Y208280D01*
X444500Y208280D02*
X444500Y223520D01*
D13*
X50800Y225400D03*
X50800Y206400D03*
X50800Y263500D03*
X50800Y244500D03*
D20*
X762000Y165100D03*
X762000Y210700D03*
D21*
X699000Y187900D03*
D19*
X558800Y160020D02*
X558800Y144780D01*
X584200Y144780D02*
X584200Y160020D01*
X482600Y160020D02*
X482600Y144780D01*
X508000Y144780D02*
X508000Y160020D01*
D13*
X508000Y181000D03*
X508000Y200000D03*
X482600Y181000D03*
X482600Y200000D03*
D22*
X314300Y165100D03*
X295300Y165100D03*
D23*
X33020Y106680D03*
X27940Y58420D03*
D24*
X307950Y79400D02*
X317500Y79400D01*
X260350Y127000D02*
X251900Y127000D01*
X260350Y127000D02*
X307950Y79400D01*
D23*
X312420Y284480D03*
X312420Y220980D03*
D24*
X251900Y187000D02*
X225100Y187000D01*
X215900Y177800D01*
X215900Y139700D01*
X232410Y123190D02*
X232410Y113030D01*
X255270Y90170D01*
X288300Y80000D02*
X288300Y63500D01*
X232410Y123190D02*
X215900Y139700D01*
X255270Y90170D02*
X278130Y90170D01*
X288300Y80000D01*
D25*
X288300Y63500D02*
X296580Y55220D01*
X317500Y55220D01*
X87900Y267000D02*
X62800Y292100D01*
X38100Y292100D01*
X15240Y269240D01*
X15240Y99060D01*
X50800Y63500D01*
X54600Y63500D01*
D26*
X54600Y106060D01*
X54610Y106070D01*
X368300Y76200D02*
X368300Y57400D01*
X368300Y76200D02*
X346100Y98400D01*
X317500Y98400D01*
D25*
X317500Y36220D02*
X366420Y36220D01*
X368300Y38100D01*
X368300Y57400D01*
X87900Y101600D02*
X87900Y127000D01*
D26*
X268580Y36220D02*
X317500Y36220D01*
X103140Y86360D02*
X87900Y101600D01*
X218440Y86360D02*
X268580Y36220D01*
X218440Y86360D02*
X103140Y86360D01*
X87900Y127000D02*
X50800Y127000D01*
X52730Y125070D01*
X54610Y125070D01*
D27*
X635000Y88900D02*
X635000Y76200D01*
X635000Y88900D02*
X673100Y127000D01*
X736600Y127000D02*
X762000Y152400D01*
X762000Y165100D01*
X736600Y127000D02*
X673100Y127000D01*
D23*
X49530Y185420D03*
D26*
X50800Y186690D02*
X50800Y206400D01*
X50800Y186690D02*
X49530Y185420D01*
D23*
X621030Y109220D03*
D25*
X635000Y95250D01*
X635000Y76200D01*
D27*
X762000Y136500D02*
X762000Y165100D01*
D26*
X393700Y55000D02*
X391300Y57400D01*
D27*
X762000Y210700D02*
X762000Y231800D01*
X733400Y231800D01*
X711200Y254000D02*
X635000Y254000D01*
X558800Y177800D01*
X558800Y152400D01*
X711200Y254000D02*
X733400Y231800D01*
D26*
X558800Y152400D02*
X558800Y127000D01*
X495300Y63500D01*
X393700Y63500D01*
X393700Y55000D01*
X403860Y247000D02*
X251900Y247000D01*
X403860Y247000D02*
X403860Y246380D01*
X419100Y231140D02*
X419100Y215900D01*
X419100Y231140D02*
X403860Y246380D01*
X466700Y200000D02*
X482600Y200000D01*
X444500Y177800D02*
X431800Y177800D01*
X419100Y190500D01*
X419100Y215900D01*
X444500Y177800D02*
X466700Y200000D01*
X431800Y267000D02*
X251900Y267000D01*
X431800Y267000D02*
X431800Y266700D01*
X444500Y254000D02*
X444500Y215900D01*
X444500Y254000D02*
X431800Y266700D01*
X508000Y254000D02*
X508000Y200000D01*
X508000Y254000D02*
X495300Y266700D01*
X431800Y266700D01*
D28*
X50800Y245110D02*
X50800Y244500D01*
X81900Y247000D02*
X87900Y247000D01*
X50800Y244500D02*
X50800Y241300D01*
X50800Y225400D01*
D24*
X56500Y247000D02*
X87900Y247000D01*
X56500Y247000D02*
X50800Y241300D01*
D26*
X251900Y167000D02*
X293400Y167000D01*
X295300Y165100D01*
X314300Y165100D02*
X406400Y165100D01*
X457200Y114300D01*
X495300Y114300D01*
X508000Y127000D01*
X508000Y152400D01*
X508000Y181000D01*
X482600Y181000D02*
X482600Y152400D01*
M02*
