M48
;GenerationSoftware,Autodesk,EAGLE,9.6.2*%
;CreationDate,2026-05-31T02:57:40Z*%
FMAT,2
ICI,OFF
METRIC,TZ,000.000
T3C0.900
T2C1.016
T1C2.100
%
G90
M71
T1
X63500Y7620
X69850Y7620
X66675Y2540
T2
X34290Y21590
X36830Y21590
X39370Y21590
X41910Y21590
X44450Y21590
X55880Y15240
X58420Y15240
X48260Y15240
X50800Y15240
T3
X3302Y10668
X2794Y5842
X31242Y28448
X31242Y22098
X5080Y16510
X66040Y16510
X76200Y20320
X74200Y20320
X72200Y20320
X72100Y16120
X74100Y16120
X76100Y16120
M30